<svg width="107" height="51" viewBox="0 0 107 51" fill="none" xmlns="http://www.w3.org/2000/svg">
<path d="M0.240234 0.886475H14.8566L24.0631 35.4343C24.6326 37.5224 24.5376 39.5156 24.5376 41.5087C24.5376 42.1731 24.7275 42.9324 25.6766 42.9324C26.6257 42.9324 26.8155 42.1731 26.8155 41.5087C26.8155 39.5156 26.8155 37.5224 27.2901 35.4343L35.5474 0.886475H53.0112L61.2685 35.4343C61.743 37.5224 61.743 39.5156 61.743 41.5087C61.743 42.1731 61.9329 42.9324 62.882 42.9324C63.8311 42.9324 64.0209 42.1731 64.0209 41.5087C64.0209 39.5156 63.926 37.5224 64.4955 35.4343L73.7019 0.886475H88.3183L72.3732 50.9999H53.3908L45.8928 18.635C45.3233 16.3571 45.4182 13.8894 45.4182 11.8962C45.4182 11.2319 45.2284 10.4726 44.2793 10.4726C43.3302 10.4726 43.1403 11.2319 43.1403 11.8962C43.1403 13.8894 43.2353 16.3571 42.6658 18.635L35.1678 50.9999H16.1854L0.240234 0.886475Z" fill="#DFE2E1"/>
<path d="M91.3659 37.3326H106.552V50.9999H91.3659V37.3326Z" fill="#DFE2E1"/>
</svg>
