<svg width="107" height="51" viewBox="0 0 107 51" fill="none" xmlns="http://www.w3.org/2000/svg">
<path d="M0.240234 0.886719H14.8566L24.0631 35.4346C24.6326 37.5226 24.5376 39.5158 24.5376 41.5089C24.5376 42.1733 24.7275 42.9326 25.6766 42.9326C26.6257 42.9326 26.8155 42.1733 26.8155 41.5089C26.8155 39.5158 26.8155 37.5226 27.2901 35.4346L35.5474 0.886719H53.0112L61.2685 35.4346C61.743 37.5226 61.743 39.5158 61.743 41.5089C61.743 42.1733 61.9329 42.9326 62.882 42.9326C63.8311 42.9326 64.0209 42.1733 64.0209 41.5089C64.0209 39.5158 63.926 37.5226 64.4955 35.4346L73.7019 0.886719H88.3183L72.3732 51.0001H53.3908L45.8928 18.6352C45.3233 16.3573 45.4182 13.8896 45.4182 11.8965C45.4182 11.2321 45.2284 10.4728 44.2793 10.4728C43.3302 10.4728 43.1403 11.2321 43.1403 11.8965C43.1403 13.8896 43.2353 16.3573 42.6658 18.6352L35.1678 51.0001H16.1854L0.240234 0.886719Z" fill="#141414"/>
<path d="M91.3659 37.3328H106.552V51.0001H91.3659V37.3328Z" fill="#141414"/>
</svg>
