<svg width="163" height="41" viewBox="0 0 163 41" fill="none" xmlns="http://www.w3.org/2000/svg">
<path d="M0.554688 0.443897H9.11385L14.505 20.6746C14.8385 21.8974 14.7829 23.0645 14.7829 24.2317C14.7829 24.6207 14.8941 25.0654 15.4498 25.0654C16.0056 25.0654 16.1168 24.6207 16.1168 24.2317C16.1168 23.0645 16.1168 21.8974 16.3947 20.6746L21.2301 0.443897H31.4566L36.292 20.6746C36.5698 21.8974 36.5698 23.0645 36.5698 24.2317C36.5698 24.6207 36.681 25.0654 37.2368 25.0654C37.7926 25.0654 37.9037 24.6207 37.9037 24.2317C37.9037 23.0645 37.8482 21.8974 38.1816 20.6746L43.5728 0.443897H52.132L42.7947 29.7896H31.6789L27.2882 10.8372C26.9547 9.50326 27.0103 8.05821 27.0103 6.89106C27.0103 6.502 26.8991 6.05737 26.3433 6.05737C25.7875 6.05737 25.6764 6.502 25.6764 6.89106C25.6764 8.05821 25.7319 9.50326 25.3985 10.8372L21.0077 29.7896H9.89195L0.554688 0.443897Z" fill="#141414"/>
<path d="M52.5931 21.7306C52.5931 15.2279 57.8175 12.838 65.3207 12.5045C71.5455 12.2266 77.548 12.7268 77.4924 10.0035C77.4369 8.00263 76.492 6.22411 69.9893 6.22411C63.431 6.22411 62.0415 7.8359 61.5413 10.2258H53.6491C54.8718 2.83379 62.4306 -0.000732422 70.2116 -0.000732422C78.2706 -0.000732422 85.4958 2.22242 85.4958 13.5605V29.7896H77.4924V27.7332C77.4924 26.3993 77.9371 25.51 78.4929 24.5096C78.7708 24.0094 79.0487 23.4536 78.4373 23.2313C77.7703 23.009 77.6036 23.5647 77.3813 23.8426C74.3245 27.6776 70.8785 30.2342 64.2091 30.2342C57.8175 30.2342 52.5931 26.6772 52.5931 21.7306ZM77.4924 14.6721C75.3804 16.5062 71.1009 17.1176 66.3767 17.4511C62.5417 17.7289 60.5965 18.7294 60.5965 21.3416C60.5965 23.7871 63.4866 25.1765 67.4327 24.6763C71.4343 24.1761 77.4369 21.0637 77.4924 14.6721Z" fill="#141414"/>
<path d="M98.2929 7.39127C98.6263 7.44685 98.8487 7.00221 98.9598 6.83548C101.628 2.16684 105.018 -0.000732422 112.188 -0.000732422V7.66916C103.906 7.11337 98.8487 10.5037 98.8487 17.9513V29.7896H90.8453V0.443897H98.8487V2.72263C98.8487 4.00095 98.4596 5.11253 98.015 6.11295C97.7927 6.61316 97.6259 7.28011 98.2929 7.39127Z" fill="#141414"/>
<path d="M123.273 0.443897V1.55548C123.273 2.72263 122.94 3.55632 122.495 4.61232C122.273 5.16811 121.884 5.83505 122.439 6.11295C122.884 6.33527 123.329 5.66832 123.495 5.446C125.83 2.38916 129.553 -0.000732422 135.056 -0.000732422C144.171 -0.000732422 149.951 6.66874 149.951 15.1167C149.951 23.5647 144.171 30.2342 135.056 30.2342C129.72 30.2342 125.607 27.8999 123.495 24.7319C123.384 24.5652 123.051 24.0094 122.606 24.1761C121.939 24.454 122.217 24.9542 122.495 25.51C122.995 26.5104 123.273 27.3997 123.273 28.5113V40.4607H115.27V0.443897H123.273ZM132.888 23.3424C139.057 23.3424 141.948 19.5631 141.948 15.1167C141.948 10.6704 139.057 6.89106 132.888 6.89106C127.83 6.89106 123.273 10.6704 123.273 15.1167C123.273 19.5631 127.108 23.3424 132.888 23.3424Z" fill="#141414"/>
<path d="M153.514 21.7862H162.406V29.7896H153.514V21.7862Z" fill="#141414"/>
</svg>
