<svg fill="none" xmlns="http://www.w3.org/2000/svg" viewBox="0 0 65 66"><g><path d="m.34 34.232.53.407.179.138.34.264.205.16.304.239.21.168c.096.076.19.152.285.226.072.056.142.115.212.17a32.203 32.203 0 0 1 .485.393c.088.07.174.142.26.212l.208.17c.088.073.175.143.26.215.069.056.135.11.201.166l.254.21c.066.057.133.11.199.165l.254.214.184.156.259.219.176.15.266.228.156.134c.107.092.213.183.317.275.034.03.068.058.1.088l.407.356c.04.034.078.069.118.105a193.613 193.613 0 0 1 .439.387l.24.213.166.149.22.198.177.158.208.186.174.159.208.188.167.15.21.192.162.149.206.19.163.148.204.188c.054.05.108.098.16.148l.218.203.133.122.246.228.116.106c.066.063.132.123.199.183l.853.79a667.16 667.16 0 0 1 .356.331l.106.098c.076.073.155.143.23.215l.155.142.194.18.15.138.203.187.148.136c.066.06.132.122.2.182.05.046.102.092.152.14l.199.18.152.14.196.179.158.142.203.182.148.133.216.192.14.124.247.218.11.096c.12.107.24.213.362.317l.014.012.349.302.12.103c.082.07.164.142.248.212l.143.12c.076.064.152.13.23.194l.154.13.22.185.167.138.216.18.168.138.223.18c.056.047.112.093.17.139l.224.18c.058.046.116.094.176.14.074.06.15.12.227.18l.176.14c.078.063.156.123.234.185l.174.136c.085.064.167.128.25.194.055.042.111.084.165.127l.284.216c.047.036.095.07.14.106l.393.294.04.03c.146.109.293.217.443.325.044.032.09.064.134.098l.316.228c.057.04.115.083.173.123.096.068.192.138.29.206l.188.132.28.196c.069.046.137.094.203.14.092.065.184.129.279.193l.21.144a691.302 691.302 0 0 0 .498.339l.289.192.22.146.299.196c.074.048.148.098.224.146.102.067.204.133.308.199l.223.142c.108.07.218.138.328.208l.216.136.21.133.447.278.245.15.43.263c.084.05.167.102.253.152.154.094.312.186.47.28l.223.132c.232.139.468.277.709.417.408.238.827.469 1.25.693.035.02.072.038.108.058.414.218.835.433 1.261.639l.032.016c.433.21.874.413 1.316.61l.11.05c.433.191.868.377 1.308.558l.064.026c.287.116.577.23.866.344l.17.066a44.602 44.602 0 0 0 1.011.377c.295.106.589.21.886.312l.03.01c.302.104.604.205.909.305l.16.052c.292.094.587.188.88.278l.168.052c.302.092.602.184.905.273l.064.018c.294.086.589.168.883.25l.136.038c.297.082.593.162.892.24l.206.054c.17.044.34.088.51.13l.203.053a89.6 89.6 0 0 0 .795.196c.202.048.403.096.605.142l.222.052c.166.038.33.076.495.112l.224.05a61.951 61.951 0 0 0 .693.15c.23.05.46.097.69.145l.193.04c.169.034.335.068.501.1.076.016.152.03.228.044.169.032.337.066.505.096l.18.034a97.97 97.97 0 0 0 1.342.243c.072.012.144.024.217.038.156.026.31.054.466.078.07.012.138.024.209.034a375.618 375.618 0 0 1 .648.106l.643.1.187.028c.154.024.308.046.46.068l.203.03c.162.024.322.046.482.068l.146.02.611.085c.048.006.096.012.146.02l.441.058.202.026.387.048.196.024c.142.018.283.034.42.05.047.006.095.012.141.016.184.022.368.042.549.062l.112.012c.142.016.284.032.425.046.06.006.122.012.182.02l.35.036.184.018.369.036.138.014c.166.016.33.032.493.046l.09.008c.13.012.26.024.387.034l.164.014c.104.01.206.018.308.026l.163.014.308.025.14.011c.142.013.285.022.423.033.018 0 .036.002.054.004l.356.026.136.01.265.018.136.01c.088.006.174.012.258.016.038.002.077.004.113.008l.352.022c.106.006.21.008.313.006.035 0 .07-.002.104-.004a2.76 2.76 0 0 0 .184-.012l.11-.012c.058-.006.114-.014.17-.024l.106-.018c.056-.01.11-.024.165-.036l.094-.025c.06-.016.116-.036.174-.053.024-.008.048-.014.07-.025a15.556 15.556 0 0 1 .212-.088c.069-.032.133-.064.195-.1.038-.022.072-.046.108-.068l.078-.054.066-.05a.944.944 0 0 0 .068-.058l.06-.056a1.291 1.291 0 0 0 .102-.116l.042-.056a1.176 1.176 0 0 0 .104-.194.85.85 0 0 0 .047-.151c.002-.012.006-.024.006-.036a.871.871 0 0 0 .01-.126h.012v.825a.536.536 0 0 1-.008.126c0 .012-.004.024-.006.036-.002.014-.004.03-.008.044-.002.012-.008.022-.012.034-.008.024-.016.05-.026.074a.849.849 0 0 1-.028.063c-.012.023-.024.048-.038.07a.194.194 0 0 1-.02.034c-.006.01-.014.018-.02.026-.014.02-.029.038-.043.056l-.052.062-.05.054-.028.03a.348.348 0 0 1-.03.026l-.068.058c-.022.018-.044.034-.066.05l-.076.054-.04.028a2.527 2.527 0 0 1-.262.14l-.07.03a3.06 3.06 0 0 1-.143.059c-.004 0-.008.004-.012.004l-.058.018c-.056.02-.114.038-.174.054l-.094.024a2.187 2.187 0 0 1-.273.054c-.056.01-.112.018-.17.024l-.11.012c-.06.006-.122.008-.184.012-.026 0-.05.004-.076.004h-.029c-.102 0-.206 0-.312-.006-.114-.006-.232-.014-.352-.022-.036-.002-.075-.004-.113-.008l-.258-.016a3.35 3.35 0 0 1-.136-.01l-.275-.018-.124-.008c-.126-.008-.254-.018-.386-.028h-.026c-.14-.012-.285-.024-.43-.034l-.13-.01c-.103-.008-.21-.016-.318-.026a4.308 4.308 0 0 1-.16-.014c-.104-.008-.21-.018-.316-.028a162.084 162.084 0 0 0-.565-.05l-.068-.007c-.162-.014-.327-.03-.493-.046l-.144-.014-.367-.036-.18-.018a23.971 23.971 0 0 1-.356-.038l-.177-.018a33.7 33.7 0 0 1-.42-.046c-.04-.004-.08-.008-.122-.014-.18-.02-.363-.04-.547-.062a3.36 3.36 0 0 0-.14-.016l-.42-.05-.197-.024-.389-.048c-.066-.008-.132-.016-.198-.026-.148-.018-.296-.038-.445-.058l-.116-.016-.028-.004a33.455 33.455 0 0 1-.61-.084c-.05-.006-.1-.014-.15-.022a38.722 38.722 0 0 1-.475-.069l-.21-.03c-.151-.022-.301-.044-.451-.068l-.195-.03c-.212-.032-.424-.066-.639-.1l-.07-.012a69.77 69.77 0 0 1-.58-.094c-.07-.012-.139-.024-.209-.034l-.466-.078c-.073-.012-.145-.024-.217-.038l-.542-.096-.129-.022c-.222-.04-.444-.082-.669-.124a232.504 232.504 0 0 0-.687-.13l-.226-.045c-.166-.032-.332-.066-.499-.1l-.198-.04a40.713 40.713 0 0 1-.685-.144l-.11-.024-.583-.126-.226-.05-.493-.113-.224-.052a64.92 64.92 0 0 1-.603-.142l-.098-.024c-.233-.056-.465-.114-.697-.172l-.202-.05c-.17-.044-.34-.086-.511-.132-.04-.01-.082-.02-.122-.032-.028-.008-.056-.016-.084-.022l-.89-.239-.138-.038c-.294-.082-.589-.166-.883-.25l-.064-.018c-.303-.088-.605-.18-.907-.273l-.169-.052c-.294-.09-.587-.184-.881-.278l-.16-.052c-.305-.1-.607-.2-.91-.305l-.03-.01a46.53 46.53 0 0 1-1.033-.368 54.749 54.749 0 0 1-.861-.323l-.17-.066c-.29-.112-.58-.226-.866-.344-.01-.004-.018-.008-.028-.01l-.038-.016a54.6 54.6 0 0 1-1.308-.557c-.036-.016-.074-.032-.11-.05a46.35 46.35 0 0 1-1.316-.61c-.01-.007-.02-.011-.032-.017a41.35 41.35 0 0 1-1.261-.639l-.109-.058c-.422-.224-.839-.455-1.25-.693l-.708-.416-.223-.133-.47-.28-.25-.152c-.147-.088-.29-.176-.433-.263-.08-.05-.162-.098-.243-.148-.152-.094-.302-.186-.45-.28l-.152-.094-.056-.035a42.558 42.558 0 0 1-.771-.493l-.305-.195c-.076-.05-.152-.099-.226-.149l-.295-.192-.222-.148-.287-.19-.22-.149-.278-.188c-.072-.048-.142-.098-.215-.146l-.276-.19-.204-.142c-.094-.067-.186-.13-.279-.197l-.19-.134a33.828 33.828 0 0 1-.286-.204l-.175-.124c-.104-.077-.208-.15-.312-.227l-.14-.102c-.148-.108-.296-.216-.44-.324l-.043-.03c-.132-.099-.262-.195-.39-.293-.048-.036-.097-.074-.147-.11l-.28-.212-.162-.125-.252-.194-.175-.136-.234-.184a5.856 5.856 0 0 1-.176-.14c-.076-.06-.153-.12-.227-.18-.058-.047-.116-.095-.176-.14a4940618813952.236 4940618813952.236 0 0 1-.395-.321l-.218-.178-.17-.14-.216-.179-.167-.138-.22-.184-.154-.13-.23-.195-.143-.12-.242-.208-.126-.108-.347-.3-.016-.015-.362-.316-.102-.09-.255-.227-.136-.12-.216-.192-.15-.136c-.069-.06-.137-.123-.203-.183l-.154-.138a3709162346521.689 3709162346521.689 0 0 1-.35-.32l-.199-.18-.152-.14c-.068-.063-.134-.125-.202-.185-.048-.044-.094-.088-.142-.13-.069-.064-.139-.126-.207-.19-.048-.047-.098-.09-.146-.137l-.2-.184c-.05-.046-.098-.092-.148-.136l-.233-.215-.106-.098-.33-.306-.008-.006-.605-.563-.108-.102-.086-.08-.269-.248-.114-.107-.246-.228-.133-.122-.218-.202-.16-.149-.204-.188c-.054-.05-.108-.1-.163-.148-.068-.062-.136-.126-.206-.188l-.168-.155-.202-.184c-.056-.052-.115-.104-.17-.156-.069-.062-.139-.124-.207-.188l-.174-.158c-.068-.063-.138-.125-.208-.187l-.177-.158-.22-.198-.166-.149-.24-.214-.157-.138-.282-.248a5.491 5.491 0 0 1-.118-.105l-.407-.356c-.034-.03-.068-.058-.1-.088l-.316-.275c-.053-.044-.105-.088-.157-.134l-.266-.228-.176-.15c-.086-.072-.17-.146-.259-.219l-.184-.156-.254-.214-.199-.164-.254-.21c-.066-.057-.134-.11-.2-.167l-.26-.214-.209-.17-.26-.213-.215-.174c-.09-.072-.18-.144-.27-.218l-.212-.17c-.094-.077-.19-.15-.285-.227l-.21-.168c-.1-.08-.202-.158-.304-.238a50.493 50.493 0 0 0-.545-.425l-.178-.138c-.175-.134-.35-.27-.531-.407a.824.824 0 0 1-.096-.088.424.424 0 0 1-.122-.286v-.825c0 .13.068.262.216.374l-.014.008Z" fill="#36CCA8"/><path d="M.438 33.414c-.37.215-.43.563-.098.817C12.218 43.288 14.838 48.794 28.613 56.8c11.046 6.42 27.243 7.995 33.672 8.376.739.044 1.42-.114 1.899-.39.478-.277.753-.672.68-1.1-.636-3.725-3.302-13.113-14.348-19.532-13.773-8.005-23.27-9.54-38.866-16.45-.437-.195-1.04-.161-1.41.053a.886.886 0 0 0-.167.124l-.49.477c-.99.966-2.181 1.849-3.543 2.636a25.647 25.647 0 0 1-4.563 2.043l-.825.282c-.08.028-.152.06-.214.096Z" fill="#44FFD2"/><path d="M18.11 16.326c-.272.45-1.159 1.857-1.395 2.254-.237.396-.92.29-.745-.167.174-.456.777-1.95.929-2.325.308-.753 1.656-.495 1.212.238Z" fill="#F6C9AA"/><path d="M17.498 13.905c-.515.342-1.665 1.123-1.819 1.22-.154.096-1.274 1.672-1.348 2.056-.074.385-.138 1.677-.07 1.955.044.178.559.072.657-.104.245-.439.928-1.242 1.082-1.464.13-.188 1.412-.751 2.04-1.112 1.483-.85.872-3.494-.544-2.553l.002.002Z" fill="#F6C9AA"/><path d="M27.703 8.222c-.421.116-6.051 1.498-6.658 1.949-.605.452-4.214 3.657-4.725 4.04-.909.678.733 3.752 2.256 2.565 1.822-1.424 3.683-2.42 3.943-2.562.26-.142 3.78-.615 5-.805 1.219-.192 2.399-5.794.184-5.187Z" fill="#fff"/><path opacity=".1" d="M17.626 17.024c.307.064.631.002.951-.249 1.823-1.422 3.684-2.419 3.944-2.561.258-.144 3.78-.615 4.997-.805.567-.09 1.126-1.352 1.338-2.616l-3.076.577s-.135 1.07 0 1.742c0 0-3.239.593-3.515.693-.233.082-3.623 2.494-4.639 3.217v.002Z" fill="#000"/><path opacity=".2" d="M27.677 38.907c2.547 1.25 5.285 3.968 7.434 4.735 1.124.4 7.016 1.446 8.788 2.61 1.775 1.165 3.778 4.422.998 5.924-3.063 1.654-5.85 1.446-7.659.881-3.036-.95-4.747-3.685-5.241-4.154-.944-.893-3.622-2.217-4.803-2.752-3.91-1.764-5.025-.709-7.25-2.575-.962-.807-3.087-3.671-1.104-5.105 1.983-1.432 5.594-1.156 8.837.434v.002Z" fill="#000"/><path d="M23.186 38.01c-.072.306-.268.573-.479.803-.456.505-3.443 1.933-2.355 3.026.973.978 2.756.445 4.38-.256.67-.288 1.398-.921 1.398-.921s.25.198.305.17l.763-.387a.304.304 0 0 0 .172-.246s.112-1.346.176-2.05c.064-.706-3.921-2.016-4.362-.139h.002Z" fill="#21222D"/><path d="M20.132 41.169a.706.706 0 0 0 .026.386c.036.096.1.193.194.285.971.977 2.754.444 4.38-.257.671-.29 1.396-.923 1.396-.923s.25.198.303.17l.02-.228c-.054.028-.303-.17-.303-.17s-.727.633-1.396.923c-1.626.699-3.409 1.234-4.38.256a.784.784 0 0 1-.24-.44v-.002ZM26.455 40.6l.763-.387a.304.304 0 0 0 .172-.246l-.02.23a.302.302 0 0 1-.172.246l-.763.387.02-.23Z" fill="#414042"/><path d="M37.877 27.258c-.673.418-8.262 4.232-8.927 4.979-.665.747-.987 5.279-1.087 6.272-.142 1.43-4.88 1.296-4.695-.588.242-2.474.695-7.44.913-8.508.219-1.068 6.666-5.418 8.486-6.52 5.103-3.09 7.27 3.145 5.308 4.363l.002.002Z" fill="#3B3C49"/><path d="M38.502 46.367c.024.312-.084.627-.214.91-.284.618-2.704 2.875-1.338 3.592 1.222.641 2.764-.402 4.102-1.56.553-.476 1.055-1.3 1.055-1.3s.299.114.343.07l.613-.596a.3.3 0 0 0 .09-.287s-.297-1.316-.447-2.009c-.15-.693-4.346-.745-4.202 1.178l-.002.002Z" fill="#21222D"/><path d="M36.537 50.297c.014.134.06.252.143.36.064.08.154.152.27.212 1.22.641 2.76-.402 4.102-1.558.553-.478 1.055-1.3 1.055-1.3s.299.115.34.072l-.05-.224c-.041.044-.34-.072-.34-.072s-.503.823-1.055 1.3c-1.342 1.156-2.882 2.199-4.102 1.558a.796.796 0 0 1-.363-.348ZM42.398 47.856l.613-.597a.3.3 0 0 0 .09-.286l.05.224a.3.3 0 0 1-.09.286l-.613.597-.05-.224Z" fill="#414042"/><path d="M42.544 26.013c-.249.753-3.816 10.257-4.112 11.212-.204.657 3.966 7.192 4.374 8.157.56 1.324-3.555 2.999-4.526 1.374-1.328-2.219-5.524-8.532-5.758-9.595-.235-1.064 1.632-8.825 2.309-11.234 1.616-5.742 8.296-1.67 7.713.088v-.002Z" fill="#4D4E5A"/><path d="M27.86 8.191c2.857-.396 7.798.924 9.755 4.162 1.957 3.237 4.645 11.603 4.985 13.243.34 1.64-2.568 2.558-4.292 2.558-1.724 0-6.884-3.485-7.469-4.248-.348-.457-.094-3.816-1.988-5.997-4.004-4.608-3.828-9.11-.99-9.718h-.002Z" fill="#fff"/><path opacity=".1" d="M28.98 18.069c1.751 2.181 1.519 5.393 1.86 5.836.582.763 5.741 4.25 7.468 4.25 1.726 0 4.633-.92 4.292-2.558-.325-1.564-2.776-9.219-4.7-12.745h-.003s-1.454 2.735-3.839 4.392l.669 1.985a.627.627 0 0 1-.701.695c-1.316-.169-4.158-.72-5.047-1.855h.002Z" fill="#000"/><path d="M28.807 10.283c.042.707 1.047 2.093 2.786 1.201 1.335-.685 2.068-1.856 1.1-2.62-.526-.412-1.868-1.962-2.853-1.546-1.302.551-1.117 1.557-1.033 2.963v.002Z" fill="#F2C7AA"/><path d="m29.738 11.589-.68-.355.14 1.498s-.748 4.166.241 12.774l1.328 1.354 1.092-1.295c-1.504-5.514-2.009-12.616-2.009-12.616l.701-1.31-.813-.048v-.002Z" fill="#44FFD2"/><path opacity=".15" d="m29.738 11.588.488 1.82s4.533-2.395 2.458-4.508l-.637-.613s1.378 2.257-2.31 3.3Z" fill="#000"/><path d="M29.738 11.588s.468 1.216.552 1.526c0 0 4.805-2.476 2.394-4.454l-.637-.373s1.378 2.257-2.31 3.3Z" fill="#fff"/><path opacity=".15" d="m29.738 11.587-.847 1.262s-1.18-1.949-.145-3.359c0 0 0 1.45.992 2.097Z" fill="#000"/><path d="m29.738 11.587-.847 1.022s-1.18-1.949-.145-3.359c0 0 0 1.69.992 2.337Z" fill="#fff"/><path d="M33.515 1.512c.933.632 1.382 1.792 1.364 2.363l-.313 4.056c-.216 1.734-.733 3.098-2.323 3.052 0 0-4.194-.327-4.86-3.757l-.371-1.819c-.617-3.833 1.692-5.041 3.843-4.85 1.707.15 2.66.959 2.66.959v-.004Z" fill="#BCBEC0"/><path d="m27.012 5.405.37 1.818c.239 1.228.928 2.06 1.717 2.62 1.414 1.005 3.144 1.14 3.144 1.14.407.011.743-.069 1.022-.223.813-.45 1.141-1.538 1.301-2.828l.315-4.057c.016-.57-.43-1.729-1.366-2.362 0 0-.953-.809-2.66-.96-2.15-.187-4.458 1.02-3.841 4.852h-.002Z" fill="#FFD2B3"/><path d="M33.861 10.208c-.352.5-.865.795-1.62.773 0 0-4.194-.324-4.86-3.757l-.027-.132c1.13 2.497 4.97 4.224 6.507 3.116Z" fill="#F7C5A8"/><path d="M34.767 2.538c-.545-2.054-3.421-2.565-4.58-2.541-1.032.022-4.187.697-3.512 5.32.541 3.7 2.214 4.452 2.82 4.786.032.018.064-.022.04-.05-.368-.417-1.682-2.187-1.281-2.768.302-.438.61-.284.799-.108.102.096.178.216.236.344l.266.603c.018.04.079.028.08-.016v-1.34a.66.66 0 0 1 .495-.632l.325-.085a4.27 4.27 0 0 1-.257.914c2.672-.896 3.782-1.294 4.254-1.516.307-.145.393-.399.443-.587.226-.875.04-1.71-.122-2.326l-.006.002Z" fill="#A8642D"/><path d="M34.889 4.862c-.048.188-.136.442-.443.587-.472.222-1.582.62-4.254 1.516.038-.072.21-.551.259-.914l-.325.085a.657.657 0 0 0-.492.63v1.34c-.002.046-.063.058-.08.016l-.269-.603a1.047 1.047 0 0 0-.236-.344c-.189-.176-.497-.332-.8.108-.4.58.914 2.35 1.282 2.768.026.026-.008.068-.038.05-.608-.338-2.3-1.095-2.83-4.863.51.467 1.667.563 2.945-.094a3.48 3.48 0 0 1 .873-.316c1.436-.305 3.583-1.226 4.436-1.635.09.5.126 1.074-.028 1.667v.002Z" fill="#965226"/><path d="M39.954 27.136c-.517 1.241-.92 3.078-.968 3.268-.106.427.539.761.717.25.621-1.77 1.122-2.287 1.266-2.661.144-.375-.739-1.524-1.017-.857h.002Z" fill="#F6C9AA"/><path d="M43.33 26.773c.096.59.379 2.123.335 2.77-.042.647-.671 2.183-.88 2.534-.424.709-3.172.482-3.01-.287.157-.737.325-1.718.285-2.079-.042-.384-.096-2.105-.118-2.397-.09-1.182 3.252-1.396 3.39-.539l-.002-.002Z" fill="#F6C9AA"/><path d="M37.614 12.355c.277.338 5.874 6.73 5.93 7.482.059.753.016 6.511.065 7.148.086 1.132-3.95 1.909-4.054-.02-.124-2.309-.1-4.923-.164-5.213-.064-.29-5.6-4.935-6.257-5.978-.657-1.046 3.314-4.841 4.478-3.417l.002-.002Z" fill="#fff"/></g><defs><clipPath id="a"><path fill="#fff" transform="matrix(-1 0 0 1 64.878 0)" d="M0 0h64.757v66.001H0z"/></clipPath></defs></svg>