<svg width="24" height="24" viewBox="0 0 24 24" fill="none" xmlns="http://www.w3.org/2000/svg">
<path fill-rule="evenodd" clip-rule="evenodd" d="M16.9517 5.37306L21.7797 11.3731C22.0787 11.7441 22.0737 12.2741 21.7687 12.6411L16.7687 18.6411C16.5707 18.8781 16.2867 19.0001 15.9997 19.0001C15.7737 19.0001 15.5477 18.9241 15.3597 18.7691C14.9357 18.4151 14.8787 17.7841 15.2317 17.3591L19.7087 11.9891L15.3927 6.62706C15.0477 6.19606 15.1147 5.56706 15.5457 5.22106C15.9757 4.87306 16.6047 4.94306 16.9517 5.37306ZM7.23204 5.35946C7.58504 4.93546 8.21404 4.87846 8.64104 5.23146C9.06504 5.58546 9.12204 6.21546 8.76904 6.64046L4.29204 12.0105L8.60804 17.3735C8.95304 17.8035 8.88604 18.4325 8.45504 18.7795C8.27104 18.9275 8.04904 19.0005 7.82904 19.0005C7.53704 19.0005 7.24704 18.8725 7.04904 18.6275L2.22104 12.6275C1.92204 12.2555 1.92704 11.7255 2.23204 11.3595L7.23204 5.35946Z" fill="#D7E0DF"/>
<mask id="mask0_2652_7997" style="mask-type:luminance" maskUnits="userSpaceOnUse" x="2" y="4" width="20" height="16">
<path fill-rule="evenodd" clip-rule="evenodd" d="M16.9517 5.37306L21.7797 11.3731C22.0787 11.7441 22.0737 12.2741 21.7687 12.6411L16.7687 18.6411C16.5707 18.8781 16.2867 19.0001 15.9997 19.0001C15.7737 19.0001 15.5477 18.9241 15.3597 18.7691C14.9357 18.4151 14.8787 17.7841 15.2317 17.3591L19.7087 11.9891L15.3927 6.62706C15.0477 6.19606 15.1147 5.56706 15.5457 5.22106C15.9757 4.87306 16.6047 4.94306 16.9517 5.37306ZM7.23204 5.35946C7.58504 4.93546 8.21404 4.87846 8.64104 5.23146C9.06504 5.58546 9.12204 6.21546 8.76904 6.64046L4.29204 12.0105L8.60804 17.3735C8.95304 17.8035 8.88604 18.4325 8.45504 18.7795C8.27104 18.9275 8.04904 19.0005 7.82904 19.0005C7.53704 19.0005 7.24704 18.8725 7.04904 18.6275L2.22104 12.6275C1.92204 12.2555 1.92704 11.7255 2.23204 11.3595L7.23204 5.35946Z" fill="white"/>
</mask>
<g mask="url(#mask0_2652_7997)">
<rect width="24" height="24" fill="#D7E0DF"/>
</g>
</svg>
