<svg width="20" height="20" viewBox="0 0 20 20" fill="none" xmlns="http://www.w3.org/2000/svg">
<path d="M13 16.75C13.4142 16.75 13.75 16.4142 13.75 16V14C13.75 11.9289 12.0711 10.25 10 10.25C7.92893 10.25 6.25 11.9289 6.25 14V16C6.25 16.4142 6.58579 16.75 7 16.75H13Z" stroke="white" stroke-width="1.5" stroke-linejoin="round"/>
<path d="M7 3.25C6.58579 3.25 6.25 3.58579 6.25 4L6.25 6C6.25 8.07107 7.92893 9.75 10 9.75C12.0711 9.75 13.75 8.07107 13.75 6L13.75 4C13.75 3.58579 13.4142 3.25 13 3.25L7 3.25Z" stroke="white" stroke-width="1.5" stroke-linejoin="round"/>
</svg>
