<svg width="24" height="24" viewBox="0 0 24 24" fill="none" xmlns="http://www.w3.org/2000/svg">
<g clip-path="url(#clip0_2294_6804)">
<path d="M2.90982 4.14886C3.05886 3.96154 3.21678 3.7813 3.3747 3.60106C3.38178 3.59212 3.3978 3.59032 3.40488 3.58138C3.4191 3.56356 3.4422 3.55282 3.45636 3.53494L3.47058 3.51712C3.58068 3.41536 3.6978 3.3046 3.83286 3.20812C4.3107 2.84536 4.8066 2.56978 5.3295 2.38846C7.00667 1.79962 8.87363 2.1625 10.3377 3.54466C12.382 5.46088 12.1989 8.54781 10.567 10.5996C8.50487 13.6582 4.96104 17.9256 9.86777 21.7483C10.75 22.4357 11.4045 23.0024 14.1835 23.8055C12.366 24.1403 10.6807 24.0361 8.80487 23.557C7.47803 22.8081 5.39196 21.2046 4.68222 19.0387C3.60954 15.7545 6.57078 10.8447 8.00189 8.95371C9.96677 6.3367 6.78744 3.50368 4.44672 6.66646C3.2232 8.31471 1.08264 12.9789 1.82652 16.4386C2.26146 18.4006 2.84118 19.8307 5.13978 21.7952C4.71354 21.5437 4.2996 21.2584 3.89808 20.9392C-1.44258 15.9643 -0.82297 8.27229 2.90982 4.14886Z" fill="url(#paint0_linear_2294_6804)"/>
<path d="M21.0901 19.8519C20.9411 20.0392 20.7831 20.2194 20.6252 20.3997C20.6181 20.4086 20.6021 20.4104 20.595 20.4194C20.5808 20.4372 20.5577 20.4479 20.5436 20.4658L20.5293 20.4836C20.4192 20.5854 20.3021 20.6961 20.1671 20.7926C19.6892 21.1554 19.1933 21.431 18.6704 21.6123C16.9932 22.2011 15.1263 21.8382 13.6622 20.4561C11.618 18.5399 11.801 15.4529 13.4329 13.4012C15.495 10.3425 19.0389 6.07512 14.1321 2.2524C13.2499 1.56504 12.5954 0.998342 9.81641 0.195243C11.6339 -0.13958 13.3192 -0.0354266 15.195 0.443703C16.5219 1.19262 18.608 2.79618 19.3177 4.962C20.3904 8.24628 17.4291 13.1561 15.998 15.047C14.0331 17.664 17.2125 20.4971 19.5532 17.3343C20.7767 15.686 22.9173 11.0218 22.1734 7.5621C21.7385 5.60016 21.1587 4.17006 18.8601 2.20554C19.2864 2.45706 19.7003 2.74236 20.1018 3.06156C25.4425 8.0364 24.8229 15.7284 21.0901 19.8519Z" fill="url(#paint1_linear_2294_6804)"/>
</g>
<defs>
<linearGradient id="paint0_linear_2294_6804" x1="1.70758e-06" y1="12.0008" x2="24" y2="12.0008" gradientUnits="userSpaceOnUse">
<stop stop-color="#0082FA"/>
<stop offset="1" stop-color="#00F2FE"/>
</linearGradient>
<linearGradient id="paint1_linear_2294_6804" x1="-6.43391e-05" y1="12" x2="23.9999" y2="12" gradientUnits="userSpaceOnUse">
<stop stop-color="#0082FA"/>
<stop offset="1" stop-color="#00F2FE"/>
</linearGradient>
<clipPath id="clip0_2294_6804">
<rect width="24" height="24" fill="white"/>
</clipPath>
</defs>
</svg>
