<svg fill="none" xmlns="http://www.w3.org/2000/svg" viewBox="0 0 44 38"><g clip-path="url(#a)"><path d="M4.207 8.985c1.45-2.747 4.483-4.107 6.837-3.056l.12.057 5.34 2.643a5.427 5.427 0 0 1 3.567.236l.167.074 3.642 1.77 10.739 5.257c1.919.946 2.94 2.974 2.925 5.236l-.002.133 1.919.893-3.311 6.311-1.94-.948c-1.826 1.408-4.126 1.852-6.062.972l-.145-.068-14.319-6.997a.08.08 0 0 1-.062 0 5.002 5.002 0 0 1-2.417-2.533l-.06-.15-5.251-2.594a.139.139 0 0 0-.066-.042l-.017-.003c-2.37-1.155-3.078-4.398-1.603-7.191Z" fill="#2B8FF3"/><path d="m6.794 27.036 9.15 4.723-5.824 5.752a.278.278 0 0 1-.316.075h-.026l-8.747-4.323a.303.303 0 0 1-.154-.198.285.285 0 0 1 .056-.241l5.86-5.788Zm7.676-7.385.042.014 8.762 4.323c.065.029.117.081.144.146a.266.266 0 0 1 .001.202l-.021.041a.176.176 0 0 1-.036.056v.03l-6.777 6.696-9.176-4.727 6.787-6.692a.279.279 0 0 1 .274-.089ZM39.502 22.3c1.169.57 1.35 2.438.434 4.188-.915 1.748-2.586 2.703-3.755 2.133-1.17-.57-1.35-2.438-.435-4.188.916-1.744 2.587-2.703 3.756-2.133ZM14.92 8.296a4.063 4.063 0 0 1 1.552.29 6.702 6.702 0 0 0-1.237.47l-.134.064h-.192c-1.686 0-3.434 1.22-4.37 2.969-1.004 1.919-.88 4.043.211 5.302.079.478.207.947.383 1.4-2.146-1.26-2.741-4.353-1.308-7.072 1.086-2.124 3.134-3.423 5.095-3.423Zm12.679-1.28 9.156 4.723-3.564 3.528-9.311-4.557 3.72-3.694h-.002ZM34.596.271l.043.014 8.809 4.323a.303.303 0 0 1 .156.165.29.29 0 0 1-.007.224.208.208 0 0 1-.03.05l-6.177 6.072-9.171-4.717L34.324.36a.27.27 0 0 1 .23-.095l.043.006Z" fill="#A3CFFA"/></g><defs><clipPath id="a"><path fill="#fff" transform="translate(.576)" d="M0 0h43.182v38H0z"/></clipPath></defs></svg>