<svg width="26" height="24" viewBox="0 0 26 24" fill="none" xmlns="http://www.w3.org/2000/svg">
<path d="M10.9439 19.5041C11.6445 22.0907 14.1478 24.065 15.4117 23.9866C15.4558 23.9866 20.2077 23.095 22.8091 18.7399C24.8323 15.3499 24.1465 12.0774 21.3933 12.0039C20.4135 12.0774 9.6359 14.5758 10.9439 19.5041Z" fill="url(#paint0_linear_2294_6827)"/>
<path d="M21.1331 2.88516C19.4003 1.40738 17.2846 0.45019 15.0306 0.124233C12.7767 -0.201724 10.4765 0.116865 8.39599 1.04317C8.13216 1.1531 7.8753 1.27908 7.62686 1.42039C7.4603 1.50857 7.28884 1.60165 7.13697 1.69962H7.18106C6.68694 2.03787 6.25168 2.45492 5.89265 2.93415C2.43892 7.50483 14.0493 10.8459 20.266 10.8557C23.127 12.9132 23.9304 5.06517 21.1331 2.88516Z" fill="url(#paint1_linear_2294_6827)"/>
<path d="M9.10275 2.97631C7.50571 5.38167 2.1855 7.07669 1.30859 6.81215L1.41637 6.5917C1.71392 5.99984 2.05621 5.43155 2.44024 4.89178C3.21997 3.8436 4.15305 2.91877 5.20812 2.14839C5.53396 1.90226 5.87245 1.67333 6.2222 1.46255C6.75869 1.15582 7.36309 0.987464 7.9809 0.972656C10.352 1.01675 9.11255 2.93222 9.10275 2.93222" fill="url(#paint2_linear_2294_6827)"/>
<path d="M7.78926 19.9766C7.90684 20.7311 7.78926 23.7145 7.6325 23.9692C7.50023 23.9692 7.22589 23.9937 6.42247 23.543C6.00154 23.3038 5.59579 23.0387 5.20754 22.7494C4.6859 22.3629 4.19458 21.9371 3.73787 21.4757C3.27521 21.0202 2.84931 20.5287 2.46415 20.006C1.6796 18.9417 1.0694 17.7594 0.656459 16.5033C0.440058 15.8646 0.276216 15.2092 0.166569 14.5438C-0.0555229 13.1728 -0.0555229 11.7751 0.166569 10.4042C0.277348 9.73897 0.441167 9.08369 0.656459 8.44461C0.69565 8.31724 0.73974 8.18987 0.788729 8.0625C1.70482 9.28723 2.74829 10.3944 3.67418 11.6289C4.60008 12.8634 5.71703 14.725 5.95707 15.1365C7.42674 17.679 7.69129 19.2516 7.80396 20.006" fill="url(#paint3_linear_2294_6827)"/>
<path d="M25.4637 12.4537C25.4654 14.0583 25.1646 15.6488 24.577 17.1419C23.0779 18.7537 12.9617 14.7807 12.8637 14.7366C11.4773 14.1291 7.26917 12.2871 6.88705 9.37717C6.35797 5.19841 14.7988 2.28846 18.517 2.17578C18.9628 2.17578 20.3198 2.17578 21.1086 2.84203C22.4791 4.03991 23.577 5.51763 24.3283 7.17564C25.0796 8.83365 25.4667 10.6334 25.4637 12.4537Z" fill="url(#paint4_linear_2294_6827)"/>
<path d="M18.607 23.7711C17.5048 24.2904 16.2898 23.9132 16.6083 22.8354C17.2108 20.773 22.4869 18.6517 23.6676 18.5391C23.8096 18.5391 23.8733 18.6223 23.8096 18.735C22.5916 20.8758 20.7863 22.6233 18.607 23.7711Z" fill="url(#paint5_linear_2294_6827)"/>
<defs>
<linearGradient id="paint0_linear_2294_6827" x1="17.4056" y1="23.9866" x2="17.4056" y2="12.0039" gradientUnits="userSpaceOnUse">
<stop stop-color="#4366C2"/>
<stop offset="0.15" stop-color="#3458B8"/>
<stop offset="0.4" stop-color="#2348AC"/>
<stop offset="0.67" stop-color="#193FA5"/>
<stop offset="1" stop-color="#163CA3"/>
</linearGradient>
<linearGradient id="paint1_linear_2294_6827" x1="14.064" y1="11.1937" x2="14.064" y2="-0.00519453" gradientUnits="userSpaceOnUse">
<stop stop-color="#4366C2"/>
<stop offset="0.15" stop-color="#3458B8"/>
<stop offset="0.4" stop-color="#2348AC"/>
<stop offset="0.67" stop-color="#193FA5"/>
<stop offset="1" stop-color="#163CA3"/>
</linearGradient>
<linearGradient id="paint2_linear_2294_6827" x1="1.30369" y1="3.9218" x2="9.43588" y2="3.9218" gradientUnits="userSpaceOnUse">
<stop stop-color="#58C66B"/>
<stop offset="1" stop-color="#5491F6"/>
</linearGradient>
<linearGradient id="paint3_linear_2294_6827" x1="-0.00979194" y1="16.0036" x2="7.83825" y2="16.0036" gradientUnits="userSpaceOnUse">
<stop stop-color="#58C66B"/>
<stop offset="1" stop-color="#5491F6"/>
</linearGradient>
<linearGradient id="paint4_linear_2294_6827" x1="6.86256" y1="9.85236" x2="25.4637" y2="9.85236" gradientUnits="userSpaceOnUse">
<stop stop-color="#58C66B"/>
<stop offset="1" stop-color="#5491F6"/>
</linearGradient>
<linearGradient id="paint5_linear_2294_6827" x1="16.5642" y1="21.2678" x2="23.8439" y2="21.2678" gradientUnits="userSpaceOnUse">
<stop stop-color="#58C66B"/>
<stop offset="1" stop-color="#5491F6"/>
</linearGradient>
</defs>
</svg>
