<svg fill="none" xmlns="http://www.w3.org/2000/svg" viewBox="0 0 60 82"><g><path opacity=".2" d="M7.012 49.248c-1.447.42-6.035 1.6-6.143 5.975-.108 4.377 1.96 6.338 4.414 6.174 2.452-.164 2.937-5.266 4.246-6.174 1.312-.908 6.54 1.713 9.507 0 2.968-1.714-1.9-8.92-12.024-5.975Z" fill="#000"/><path d="m16.63 29.6.646 1.813a.34.34 0 0 1-.631.259l-.379-.812s-1.39.302-.923-1.19c.465-1.491 1.282-.071 1.282-.071l.004.002Z" fill="#FFD2B3"/><path d="M13.024 29.637s.323 1.01.53 2.017c.148.727.168 1.519.284 1.612.276.224.554.728 1.52.581.966-.145 1.277-.591 1.248-.921-.014-.17.089-.84.052-1.447-.035-.57-.207-1.065-.212-1.515-.026-2.1-3.546-2.154-3.422-.328v.002Z" fill="#FFD2B3"/><path d="M10.872 10.24c-.325 1.62 1.213 10.277 1.316 10.754.102.477.59 8.172.753 9.04.174.933 4.003 1.38 3.858-.572-.133-1.828-.382-8.445-.521-9.096-.14-.65-1.107-8.195-1.252-9.224-.28-1.985-3.796-2.695-4.154-.903Z" fill="#fff"/><path opacity=".2" d="M12.188 20.994c.104.48.593 8.174.753 9.041.027.145.141.279.315.39.097.356.209.793.298 1.227.149.727.168 1.517.284 1.612.276.224.554.726 1.522.583.016 0 .031-.006.046-.006.072-1.254.132-2.28.17-2.919.02-.307.008-.616-.032-.921.139-.188.214-.366.212-.53-.023-2.87-.181-10.39-.566-15.225-.176-1.33-.47-2.81-.518-3.16-.28-1.985-3.5-2.462-3.796-.847-.297 1.627 1.213 10.276 1.316 10.753l-.004.002Z" fill="#000"/><path d="M14.365 49.993c.045.327.203.632.389.9.407.588 3.32 2.48 2.04 3.47-1.146.887-2.93.09-4.525-.861-.659-.393-1.329-1.15-1.329-1.15s-.288.172-.34.135l-.742-.506a.311.311 0 0 1-.145-.278l.124-2.902.052-.411c.072-.555.864-1.223 1.92-1.256 1.264-.039 2.056.82 2.18 1.24.156.532.299 1.069.376 1.62Z" fill="#21222D"/><path d="M17.114 53.696a.729.729 0 0 1-.08.397.862.862 0 0 1-.242.269c-1.144.885-2.927.089-4.525-.86-.658-.392-1.327-1.151-1.327-1.151s-.288.172-.338.135l.01-.241c.052.036.338-.136.338-.136s.67.758 1.327 1.152c1.598.948 3.38 1.746 4.525.86a.847.847 0 0 0 .31-.425h.002Z" fill="#414042"/><path d="m10.611 52.245-.741-.506a.31.31 0 0 1-.145-.278l-.01.241a.315.315 0 0 0 .145.279l.742.506.01-.242Z" fill="#414042"/><path d="M15.045 29.026c.253.595.336 1.247.297 1.895-.195 3.274-.975 16.67-.83 18.752.164 2.375-4.658 2.276-4.855.514-.197-1.763-.133-16.407-.276-18.992-.147-2.639 4.118-5.801 5.666-2.168l-.002-.002Z" fill="#3B3C49"/><path d="M3.476 53.413s-.052.694-.019 1.594c.06 1.69.417 4.47 1.973 4.413 1.765-.066 1.982-2.779 1.949-4.305-.016-.68-.08-1.196-.08-1.275 0-1.78.016-1.97-1.19-1.97-.732 0-2.63-.46-2.63 1.543h-.003Z" fill="#21222D"/><path d="m3.69 31.276-.48 22.16c0 1.612 4.21 1.575 4.314.238 1.32-16.709 3.375-19.247 3.591-22.499.244-3.67-7.428-5.117-7.428.099l.002.002Z" fill="#4D4E5A"/><path d="M14.382 9.977c-1.004-.902-2.672-1.003-3.835-.317-.691.41-1.586.833-2.505 1.362-1.397.806-3.48 2.085-3.862 2.608-.421.576-.255 2.68-.155 5.657a47.497 47.497 0 0 1-.1 5.058l-.443 6.037c0 .647.288 2.683 4.239 3.118 1.318.145 7.81-2.537 7.799-4.032-.035-4.107.081-18.398-1.14-19.493l.002.002Z" fill="#fff"/><path d="m11.104 12.53.62-.5.162 1.556s1.61 4.1 2.347 13.085l-1.08 1.652-1.377-1.101c.415-5.933-.512-13.284-.512-13.284l-.981-1.194.82-.214Z" fill="#44FFD2"/><path d="M7.7 9.614c.015.454-.124 1.467-.396 1.818-.298.387 1.947 1.884 3.8 1.1.624-.265.24-2.307-.947-3.078 0 0-1.032-.838-1.646-.578 0 0-.827.255-.811.738Z" fill="#F2C7AA"/><path opacity=".1" d="M7.663 11.53s.865 1.143 3.44 1.002c0 0-.058 1.117-.106 2.42 0 0-3.41-1.178-3.955-2.83 0 0 .5-.438.623-.593h-.002Z" fill="#000"/><path d="M7.466 11.139s1.062 1.534 3.636 1.39c0 0-.253.729-.304 2.033 0 0-3.41-1.178-3.954-2.83 0 0 .5-.439.622-.593Z" fill="#fff"/><path opacity=".1" d="M11.101 12.532s1.23 1.078 1.666 1.657c0 0 .309-2.886-1.878-4.294l-.83-.34s1.436 1.31 1.042 2.977Z" fill="#000"/><path d="M11.101 12.531s1.136.711 1.571 1.29c0 0 .048-2.8-1.878-4.294l-.736.027s1.437 1.31 1.043 2.977Z" fill="#fff"/><path d="M14.31 2.422c.822.877 1.013 2.185.86 2.772L13.893 9.33c-.633 1.748-1.49 3.042-3.127 2.62 0 0-4.276-1.324-4.16-5.043l.043-1.974C6.909.809 9.587.1 11.776.802c1.735.556 2.535 1.62 2.535 1.62Z" fill="#FFD2B3"/><path d="M15.37 3.783C15.285 1.523 12.42.317 11.211.069c-1.076-.22-4.507-.26-4.894 4.695-.309 3.968 1.25 5.139 1.801 5.63.029.025.071-.01.052-.043-.284-.52-1.23-2.664-.68-3.174.417-.385.701-.15.854.075.083.124.135.267.164.414l.135.687c.01.047.076.049.087 0l.317-1.389a.698.698 0 0 1 .659-.54l.355-.012a4.322 4.322 0 0 1-.48.887c2.982-.302 4.228-.454 4.77-.574.35-.077.502-.323.596-.504.443-.856.445-1.764.42-2.44l.001.002Z" fill="#B07443"/><path opacity=".2" d="M2.256 24.614c0-.49 1.002-8.59 1.66-10.108.726-1.677 3.749-.008 3.36 1.934-.204 1.02-.888 7.749-.888 8.415 0 .667-.168 7.486-.037 9.44.01.148-.005.28-.04.4l.858.76a.34.34 0 0 1-.43.532l-.685-.505c.123.854.282 1.803.326 2.039.06.326-.206.8-1.155 1.035-.949.238-1.273-.237-1.569-.434-.212-.142-.716-1.907-.983-2.889-.209-.123-.35-.266-.379-.425-.177-.933-.036-9.711-.036-10.2l-.002.006Z" fill="#000"/><path d="m5.237 33.744 1.44 1.279a.34.34 0 0 1-.43.531l-.72-.53s-1.072.932-1.381-.598c-.308-1.532 1.091-.68 1.091-.68v-.002Z" fill="#FFD2B3"/><path d="M2.01 34.154s.859 3.336 1.154 3.533c.296.197.622.67 1.57.435.948-.238 1.212-.711 1.154-1.036-.06-.326-.342-2.01-.442-2.932-.224-2.089-3.734-1.807-3.437 0Z" fill="#FFD2B3"/><path d="M4.084 13.822c-.657 1.518-2.319 9.868-2.319 10.357 0 .488-.14 9.267.037 10.2.178.933 4.189 1.435 4.057-.518-.131-1.955.037-8.772.037-9.439 0-.666 1.854-7.612 2.057-8.632.389-1.941-3.145-3.643-3.871-1.966l.002-.002Z" fill="#fff"/><path d="M25.114 62.132c-3.562 2.07-5.347 4.778-5.363 7.49l.01-3.45c.014-2.713 1.8-5.421 5.363-7.49 7.183-4.175 18.867-4.175 26.098 0 3.622 2.092 5.44 4.834 5.448 7.575l-.01 3.45c-.007-2.741-1.825-5.484-5.448-7.575-7.23-4.175-18.915-4.175-26.098 0Z" fill="#36CCA8"/><path d="m56.67 66.293-.01 3.45c.008-2.752-1.81-5.509-5.448-7.61-7.23-4.176-18.915-4.176-26.098 0-3.568 2.072-5.355 4.786-5.363 7.505l.01-3.45c.008-2.719 1.795-5.433 5.363-7.506 7.183-4.175 18.867-4.175 26.098 0 3.638 2.1 5.456 4.859 5.448 7.611Z" fill="#32323B"/><path d="M51.218 60.121c7.23 4.175 7.268 10.943.085 15.117-7.183 4.175-18.867 4.175-26.098 0-7.231-4.174-7.268-10.942-.085-15.117 7.183-4.175 18.867-4.175 26.098 0Z" fill="#F2F2F2"/><path d="m50.706 60.315-.002.683-2.212 1.287.002-.684 2.212-1.286Z" fill="#666"/><path d="m48.493 61.6-.002.685-.413-.238.002-.684.413.238Z" fill="gray"/><path d="M50.706 60.314 48.492 61.6l-.413-.237 2.214-1.287.412.238Z" fill="#999"/><path d="m42.951 57.623-.002.684-.803 1.758.001-.684.804-1.758Z" fill="#666"/><path d="m42.148 59.382-.002.684-.563-.087.002-.684.563.087Z" fill="gray"/><path d="m42.951 57.624-.803 1.758-.563-.087.804-1.758.562.087Z" fill="#999"/><path d="m34.747 59.295-.002.684-.56.087.002-.684.56-.087Z" fill="gray"/><path d="m34.186 59.381-.002.684-.82-1.756.001-.686.821 1.758Z" fill="#666"/><path d="m33.925 57.537.822 1.758-.56.087-.822-1.758.56-.087Z" fill="#999"/><path d="m28.277 61.363-.002.684-.41.238.002-.684.41-.238Z" fill="gray"/><path d="m27.867 61.601-.002.684-2.23-1.287.003-.683 2.23 1.286Z" fill="#666"/><path d="m28.277 61.363-.41.237-2.23-1.286.41-.238 2.23 1.287Z" fill="#999"/><path d="m24.467 65.031-.002.684-.149.325.002-.684.15-.325Z" fill="gray"/><path d="m24.318 65.356-.002.684-3.037-.471.002-.684 3.037.471Z" fill="#666"/><path d="m24.467 65.032-.149.325-3.037-.472.149-.325 3.037.472Z" fill="#999"/><path d="m24.493 69.64-.002.686-3.03.47.002-.684 3.03-.471Z" fill="#666"/><path d="m21.463 70.112-.002.684-.152-.325.002-.684.152.325Z" fill="gray"/><path d="m24.34 69.316.152.325-3.029.471-.152-.324 3.029-.472Z" fill="#999"/><path d="m28.342 73.31-.002.684-2.212 1.287.002-.684 2.212-1.286Z" fill="#666"/><path d="m26.13 74.597-.002.684-.413-.238.002-.684.413.238Z" fill="gray"/><path d="m28.342 73.31-2.212 1.287-.413-.238 2.214-1.287.411.238Z" fill="#999"/><path d="m34.837 75.379-.002.684-.801 1.756.002-.684.801-1.756Z" fill="#666"/><path d="m34.036 77.136-.002.684-.562-.087.002-.684.562.087Z" fill="gray"/><path d="m34.837 75.38-.801 1.756-.562-.087.803-1.756.56.087Z" fill="#999"/><path d="m43.06 77.047-.003.684-.56.087.002-.684.56-.087Z" fill="gray"/><path d="m42.5 77.135-.003.684-.823-1.756.002-.684.823 1.756Z" fill="#666"/><path d="m42.236 75.29.824 1.757-.56.087-.824-1.756.56-.089Z" fill="#999"/><path d="m50.785 74.36-.002.683-.41.238.003-.684.409-.238Z" fill="gray"/><path d="m50.375 74.597-.002.684-2.227-1.287.002-.683 2.227 1.286Z" fill="#666"/><path d="m50.785 74.359-.41.238-2.227-1.287.41-.238 2.227 1.287Z" fill="#999"/><path d="m55.142 69.787-.002.684-.149.325.002-.684.149-.325Z" fill="gray"/><path d="m54.993 70.112-.002.684-3.035-.472.002-.683 3.035.471Z" fill="#666"/><path d="m55.142 69.788-.149.324-3.035-.471.149-.325 3.035.472Z" fill="#999"/><path d="m55.115 64.885-.002.684-3.032.471.002-.684 3.032-.471Z" fill="#666"/><path d="m52.083 65.356-.002.684-.152-.325.002-.684.152.325Z" fill="gray"/><path d="m54.962 64.56.152.325-3.03.471-.153-.324 3.03-.471Z" fill="#999"/><path d="M53.293 74.947c-8.272 4.808-21.73 4.808-30.056 0-4.19-2.42-6.285-5.595-6.275-8.767l-.01 3.45c-.01 3.17 2.085 6.346 6.275 8.767 8.326 4.808 21.784 4.808 30.056 0 4.111-2.388 6.169-5.514 6.176-8.645l.01-3.45c-.01 3.13-2.067 6.255-6.176 8.645Z" fill="#32323B"/><path d="M53.196 57.536c8.327 4.808 8.371 12.602.097 17.41-8.273 4.809-21.73 4.809-30.056 0-8.329-4.808-8.371-12.603-.099-17.41 8.274-4.808 21.73-4.808 30.058 0ZM25.211 73.801c7.23 4.174 18.915 4.174 26.098 0 7.183-4.175 7.144-10.943-.085-15.117-7.231-4.175-18.915-4.175-26.098 0-7.183 4.174-7.144 10.942.085 15.117Z" fill="#4D4E5A"/><path d="M49.93 61.908v.137l-.348.423v-.135l.348-.425Z" fill="#666"/><path d="M38.047 65.713v.135l-.033-.031.002-.137.03.032ZM38.187 65.852v.137l-.14-.143v-.135l.14.141ZM38.361 66.027v.136l-.173-.172v-.138l.173.174Z" fill="#404040"/><path d="M49.582 62.332v.135l-11.22 3.694v-.135l11.22-3.694Z" fill="gray"/><path d="m49.93 61.908-.348.425-11.22 3.694-.174-.174-.142-.141-.03-.033 11.102-3.808.812.037Z" fill="#B3B0B5"/><path d="M40.06 66.107v.28c0 .273-.18.543-.538.75-.716.417-1.883.417-2.606 0-.363-.21-.544-.485-.544-.76v-.28c0 .275.181.551.544.76.723.417 1.89.417 2.607 0 .357-.207.535-.48.535-.75" fill="#969296"/><path d="M39.515 65.344c.722.418.726 1.094.008 1.511-.717.417-1.884.417-2.607 0-.722-.417-.726-1.094-.007-1.509.716-.417 1.883-.417 2.606 0v-.002Z" fill="#B3B0B5"/><path d="M39.163 65.898v.145c0 .141-.093.28-.277.389-.37.214-.973.214-1.346 0-.188-.109-.282-.252-.28-.393v-.145c0 .143.095.284.282.393.373.214.975.214 1.346 0 .184-.107.277-.248.277-.389h-.002Z" fill="#C44B4B"/><path d="M39.163 65.898v.145c0 .141-.093.28-.277.389-.37.214-.973.214-1.346 0-.188-.109-.282-.252-.28-.393v-.145c0 .143.095.284.282.393.373.214.975.214 1.346 0 .184-.107.277-.248.277-.389" fill="#BD4842"/><path d="M38.883 65.507c.373.215.375.564.004.78-.371.215-.974.215-1.347 0-.373-.214-.375-.563-.004-.78.371-.214.974-.216 1.347 0Z" fill="#FF6060"/><path d="m37.453 66.227-7.673.941v-.137l7.553-.922c.033.04.07.08.12.116v.002Z" fill="#A41319"/><path d="m38.047 65.71.14.142.043.147-8.452 1.031-.78-.336.556-.456 8.493-.527Z" fill="#FF6060"/><path d="M29.778 67.03v.137l-.782-.337.002-.137.78.337Z" fill="#BD4842"/><path d="M51.222 58.682c7.229 4.175 7.268 10.942.085 15.117-7.183 4.175-18.867 4.175-26.098 0-7.231-4.175-7.268-10.942-.085-15.117 7.183-4.175 18.867-4.175 26.098 0Z" fill="#32323B" opacity=".1"/></g><defs><clipPath id="a"><path fill="#fff" transform="translate(.863)" d="M0 0h58.608v82.001H0z"/></clipPath></defs></svg>