<svg width="20" height="20" viewBox="0 0 20 20" fill="none" xmlns="http://www.w3.org/2000/svg">
<g opacity="0.4">
<path fill-rule="evenodd" clip-rule="evenodd" d="M6.87901 6.4644C6.87889 6.19907 6.98415 5.94468 7.17165 5.75718C7.35915 5.56969 7.61353 5.46442 7.87886 5.46455L13.5393 5.46809C13.8046 5.4683 14.0591 5.57388 14.2468 5.76161C14.4346 5.94934 14.5402 6.20386 14.5404 6.46919L14.5439 12.1296C14.5395 12.3919 14.4322 12.6419 14.2452 12.8257C14.0582 13.0095 13.8064 13.1124 13.544 13.1122C13.2817 13.112 13.0297 13.0088 12.8425 12.8248C12.6552 12.6408 12.5477 12.3907 12.5429 12.1283L12.5409 8.88351L7.17681 14.2476C6.98927 14.4352 6.73482 14.5404 6.46944 14.5403C6.20406 14.5401 5.94948 14.4345 5.76171 14.2467C5.57394 14.059 5.46836 13.8044 5.46819 13.539C5.46802 13.2736 5.57329 13.0192 5.76082 12.8316L11.1249 7.46753L7.88011 7.4655C7.61478 7.46529 7.36027 7.35971 7.17253 7.17198C6.9848 6.98425 6.87922 6.72973 6.87901 6.4644Z" fill="#DFE2E1"/>
</g>
</svg>
