<svg width="32" height="32" viewBox="0 0 32 32" fill="none" xmlns="http://www.w3.org/2000/svg">
<path fill-rule="evenodd" clip-rule="evenodd" d="M15.9925 2.66675C13.3554 2.66675 10.7776 3.44873 8.58492 4.91382C6.39226 6.37891 4.68329 8.46129 3.67413 10.8976C2.66496 13.334 2.40091 16.0149 2.91538 18.6013C3.42985 21.1877 4.69973 23.5635 6.56443 25.4282C8.42913 27.2929 10.8049 28.5627 13.3913 29.0772C15.9777 29.5917 18.6586 29.3276 21.095 28.3185C23.5313 27.3093 25.6137 25.6003 27.0788 23.4077C28.5439 21.215 29.3259 18.6372 29.3259 16.0001C29.326 14.2491 28.9812 12.5152 28.3112 10.8975C27.6412 9.27972 26.6591 7.80981 25.4209 6.57167C24.1828 5.33352 22.7129 4.3514 21.0951 3.68139C19.4774 3.01138 17.7435 2.6666 15.9925 2.66675ZM19.9357 21.5829H19.9594C19.9765 21.5753 19.9937 21.5652 20.0102 21.5599C20.4944 21.4026 20.971 21.2241 21.4351 21.0142C21.9914 20.7623 22.5265 20.4726 23.042 20.1451C23.3311 19.9618 23.6125 19.7667 23.8881 19.5639C23.9223 19.5385 23.9383 19.5107 23.9407 19.4664C23.9466 19.3549 23.9552 19.2437 23.9637 19.1326C23.968 19.0775 23.9722 19.0224 23.9762 18.9674C23.9777 18.9449 23.9777 18.9227 23.9777 18.9004C23.9777 18.8893 23.9777 18.8781 23.9779 18.8669C23.9797 18.8621 23.9821 18.8568 23.9838 18.8521C23.985 18.8051 23.9861 18.7581 23.9871 18.7111C23.9881 18.6641 23.9892 18.6171 23.9903 18.5701C23.9902 18.5496 23.99 18.5291 23.9898 18.5085C23.9893 18.4467 23.9887 18.3846 23.9892 18.3229C23.9892 18.3142 23.9927 18.3054 23.9962 18.2967C23.9977 18.293 23.9992 18.2893 24.0004 18.2857V17.9428C23.9991 17.9395 23.9976 17.9363 23.9961 17.9332C23.9926 17.926 23.9892 17.9188 23.9892 17.9115C23.9892 17.8603 23.9897 17.8094 23.9902 17.7584C23.9905 17.7328 23.9907 17.7072 23.9909 17.6815C23.9903 17.6348 23.9896 17.5881 23.9889 17.5414C23.9881 17.4946 23.9874 17.4479 23.9868 17.4012C23.9859 17.3989 23.9849 17.3963 23.9838 17.3938C23.9828 17.3913 23.9818 17.3888 23.9809 17.3864C23.98 17.3554 23.979 17.3244 23.9779 17.2933C23.9769 17.2623 23.9759 17.2313 23.975 17.2002C23.9732 17.1955 23.9708 17.1902 23.9691 17.1854C23.9448 16.7734 23.8969 16.3642 23.8325 15.9569C23.7515 15.4484 23.6409 14.9459 23.5014 14.4498C23.3548 13.9284 23.1762 13.4188 22.9693 12.9186C22.8179 12.5532 22.6506 12.1955 22.4685 11.8443C22.2137 11.353 21.9323 10.8777 21.6278 10.4159C21.6018 10.3769 21.5722 10.3497 21.5285 10.3296C21.0431 10.1038 20.5441 9.91163 20.0345 9.74845C19.5603 9.5971 19.0785 9.47472 18.5901 9.37894C18.5265 9.36648 18.4629 9.3557 18.3972 9.34457C18.3756 9.34091 18.3538 9.33722 18.3318 9.33341C18.3189 9.35774 18.3058 9.38166 18.2928 9.4054C18.2677 9.45147 18.2428 9.49687 18.2206 9.5433C18.1414 9.71037 18.0638 9.87784 17.9862 10.0454C17.9687 10.083 17.9513 10.1206 17.9339 10.1582C17.9247 10.1777 17.9202 10.1877 17.9125 10.1922C17.9044 10.197 17.8926 10.1955 17.8676 10.1925C17.7606 10.1795 17.6536 10.1664 17.5466 10.1546C17.4816 10.1472 17.4165 10.1406 17.3513 10.1339C17.3021 10.1289 17.2528 10.1239 17.2037 10.1186C17.1791 10.1162 17.1545 10.1123 17.1299 10.1084C17.1238 10.1075 17.1176 10.1065 17.1115 10.1055L17.0364 10.0967C17.0234 10.0961 17.0102 10.0956 16.9971 10.0952C16.9839 10.0948 16.9708 10.0943 16.9578 10.0937L16.8708 10.0849C16.8558 10.0843 16.8407 10.0838 16.8256 10.0834C16.8106 10.0829 16.7955 10.0825 16.7804 10.0819C16.7618 10.0804 16.7431 10.0791 16.7245 10.0778C16.7059 10.0764 16.6873 10.0751 16.6686 10.0736L16.5203 10.0701C16.4827 10.0704 16.4452 10.0705 16.4076 10.0707C16.3701 10.0708 16.3325 10.071 16.295 10.0713C16.2314 10.071 16.1679 10.0708 16.1043 10.0707C16.0408 10.0705 15.9772 10.0704 15.9137 10.0701C15.8747 10.0701 15.8358 10.0702 15.7967 10.0704C15.7576 10.0705 15.7183 10.0707 15.6789 10.0707C15.6562 10.0713 15.6333 10.0717 15.6104 10.0721C15.5875 10.0726 15.5645 10.073 15.5418 10.0736C15.5232 10.0751 15.5045 10.0764 15.4859 10.0778C15.4673 10.0791 15.4487 10.0804 15.43 10.0819C15.415 10.0825 15.3999 10.0829 15.3848 10.0834C15.3697 10.0838 15.3547 10.0843 15.3396 10.0849L15.2527 10.0937C15.2397 10.0943 15.2265 10.0948 15.2134 10.0952C15.2002 10.0956 15.187 10.0961 15.174 10.0967L15.099 10.1055C15.055 10.1099 15.011 10.114 14.967 10.118C14.8789 10.1262 14.7909 10.1343 14.7034 10.1446C14.5834 10.1588 14.4646 10.1765 14.3451 10.1954C14.3156 10.2001 14.3038 10.1907 14.2919 10.1653C14.2003 9.9672 14.1075 9.76974 14.0135 9.57286C13.993 9.53029 13.9704 9.48878 13.9478 9.44727C13.9365 9.42651 13.9252 9.40574 13.9141 9.38485C13.8864 9.33341 13.881 9.33046 13.8272 9.34051C13.7514 9.3546 13.676 9.36969 13.6002 9.38486L13.5795 9.38899C13.1923 9.46644 12.8086 9.56044 12.4296 9.67337C12.0689 9.78038 11.7136 9.9004 11.3654 10.0423C11.2143 10.1038 11.0646 10.1686 10.9149 10.2334C10.8373 10.267 10.7597 10.3006 10.6819 10.3338C10.6447 10.3497 10.6169 10.374 10.5944 10.4088C10.3378 10.8032 10.0972 11.2064 9.87373 11.6203C9.60059 12.1263 9.35819 12.646 9.14771 13.1811C8.88758 13.8403 8.68065 14.5161 8.52929 15.209C8.44948 15.5738 8.38267 15.9403 8.33715 16.311C8.31527 16.4902 8.29576 16.6693 8.27803 16.849C8.27066 16.9235 8.26584 16.998 8.26102 17.0725C8.25888 17.1056 8.25674 17.1387 8.25438 17.1718C8.25319 17.1742 8.25216 17.1767 8.25112 17.1792C8.25009 17.1817 8.24906 17.1843 8.24787 17.1866L8.24255 17.3723C8.24019 17.377 8.23841 17.3823 8.23605 17.387C8.23487 17.4302 8.23354 17.4732 8.23221 17.5162C8.23088 17.5592 8.22955 17.6022 8.22836 17.6454C8.22659 17.6501 8.22541 17.6549 8.22363 17.6596C8.22363 17.9369 8.22363 18.2142 8.22422 18.4914C8.22422 18.5105 8.22522 18.5296 8.22622 18.5486C8.22655 18.555 8.22688 18.5614 8.22718 18.5677C8.22895 18.5724 8.23014 18.5778 8.23132 18.5825C8.2322 18.6274 8.23324 18.6722 8.23427 18.7169C8.23531 18.7617 8.23634 18.8065 8.23723 18.8515C8.23812 18.8539 8.23915 18.8564 8.24019 18.8589C8.24122 18.8614 8.24226 18.8639 8.24314 18.8663L8.26088 19.2299C8.26265 19.2346 8.26502 19.2399 8.26679 19.2447C8.26808 19.2649 8.2694 19.2853 8.27072 19.3056C8.27487 19.3694 8.27903 19.4334 8.28216 19.4971C8.28335 19.5249 8.30108 19.5379 8.32059 19.5521C8.36667 19.5852 8.41256 19.6185 8.45843 19.6518C8.55262 19.7201 8.64671 19.7884 8.74213 19.8548C9.06553 20.0789 9.39839 20.2882 9.74071 20.4821C10.1498 20.7138 10.5702 20.9231 11.0024 21.1082C11.3997 21.2791 11.8047 21.4298 12.2173 21.5593C12.2286 21.5625 12.239 21.5684 12.2493 21.5743C12.2542 21.5771 12.2591 21.5799 12.264 21.5823H12.2877C12.2972 21.5676 12.3064 21.5527 12.3157 21.5378C12.3342 21.5079 12.3527 21.4781 12.3728 21.4493C12.6099 21.1129 12.8245 20.7623 13.0167 20.3981C13.0361 20.3608 13.0552 20.3235 13.0742 20.2863C13.0935 20.2487 13.1126 20.2112 13.132 20.1741C13.056 20.1401 12.9805 20.1068 12.9054 20.0737C12.7517 20.006 12.5998 19.9391 12.4497 19.8684C12.2256 19.7632 12.0092 19.6426 11.7934 19.5113C11.8007 19.5051 11.8071 19.4994 11.8131 19.494C11.8209 19.487 11.8281 19.4806 11.8354 19.4746C11.8652 19.4507 11.8951 19.427 11.9248 19.4033C11.9783 19.3607 12.0315 19.3183 12.0843 19.2754C12.108 19.2559 12.1281 19.2506 12.1582 19.2648C12.5342 19.4415 12.9209 19.5923 13.3164 19.7182C13.6818 19.8347 14.0525 19.9317 14.4303 20.0002C14.4705 20.0075 14.5106 20.0153 14.5506 20.0231C14.6123 20.0352 14.6739 20.0473 14.7359 20.057C14.7926 20.066 14.8497 20.0726 14.9067 20.0791C14.9508 20.0842 14.9948 20.0892 15.0386 20.0954C15.1604 20.1126 15.2822 20.1285 15.4058 20.1297C15.4203 20.1315 15.4347 20.1331 15.449 20.1348C15.4633 20.1364 15.4777 20.138 15.4921 20.1398C15.5072 20.1404 15.5221 20.1408 15.537 20.1412C15.552 20.1417 15.5669 20.1421 15.582 20.1427C15.6006 20.1442 15.6192 20.1455 15.6379 20.1469C15.6565 20.1482 15.6751 20.1495 15.6937 20.151C15.7168 20.1516 15.7397 20.152 15.7626 20.1525C15.7855 20.1529 15.8084 20.1534 15.8315 20.154H16.4162C16.4393 20.1534 16.4622 20.1529 16.4851 20.1525C16.508 20.152 16.5309 20.1516 16.554 20.151C16.5726 20.1495 16.5912 20.1482 16.6098 20.1469C16.6284 20.1455 16.6471 20.1442 16.6657 20.1427L16.755 20.1392C16.7677 20.1377 16.7804 20.1364 16.7931 20.135C16.8058 20.1337 16.8185 20.1324 16.8312 20.1309C16.9069 20.1309 16.982 20.1226 17.0571 20.1073C17.0858 20.1016 17.1152 20.1005 17.1447 20.0993C17.168 20.0983 17.1914 20.0974 17.2143 20.0942C17.2764 20.0856 17.3382 20.0759 17.3999 20.0661C17.4358 20.0604 17.4717 20.0547 17.5076 20.0493C17.5345 20.0452 17.5616 20.0415 17.5887 20.0379C17.6425 20.0307 17.6963 20.0235 17.7494 20.0121C17.793 20.0028 17.8367 19.9935 17.8803 19.9843C18.075 19.9432 18.2696 19.9022 18.4618 19.8524C18.8964 19.7401 19.3197 19.5917 19.7324 19.4149C19.8166 19.3789 19.9 19.3417 19.9851 19.3038C20.0242 19.2864 20.0636 19.2688 20.1036 19.2512C20.2095 19.3345 20.3171 19.4197 20.4312 19.5101C20.002 19.7726 19.5538 19.9872 19.0856 20.1687C19.095 20.1877 19.1043 20.2063 19.1133 20.2246C19.1399 20.2781 19.1651 20.329 19.192 20.3792C19.367 20.7079 19.5562 21.0272 19.7666 21.3346C19.79 21.3686 19.8136 21.4024 19.8373 21.4363C19.8609 21.4701 19.8846 21.504 19.908 21.538C19.914 21.5465 19.9194 21.5557 19.9248 21.5648C19.9284 21.5709 19.932 21.577 19.9357 21.5829ZM18.8198 17.6767C18.8051 17.6781 18.7905 17.6794 18.7758 17.6809C18.7492 17.6815 18.722 17.6815 18.6954 17.6815C18.6791 17.6797 18.6627 17.6781 18.6463 17.6764C18.6299 17.6748 18.6135 17.6732 18.5972 17.6714C18.4825 17.6661 18.3743 17.6324 18.2685 17.5904C17.9936 17.481 17.7796 17.296 17.614 17.0536C17.4467 16.8088 17.3527 16.5369 17.3237 16.2424C17.322 16.226 17.3218 16.2092 17.3217 16.1923C17.3216 16.1856 17.3215 16.1788 17.3214 16.1721C17.3205 16.1697 17.3194 16.1672 17.3184 16.1647C17.3174 16.1622 17.3163 16.1597 17.3154 16.1573C17.3151 16.1263 17.3147 16.0952 17.3143 16.0642C17.3138 16.0331 17.3134 16.0021 17.3131 15.9711C17.314 15.9687 17.315 15.9662 17.316 15.9637C17.3171 15.9612 17.3181 15.9586 17.319 15.9563C17.3338 15.6494 17.4219 15.3645 17.588 15.1067C17.7979 14.7815 18.0852 14.5586 18.4683 14.4717C18.4939 14.4657 18.52 14.463 18.5461 14.4604C18.561 14.4588 18.5759 14.4573 18.5907 14.4552C18.6032 14.4537 18.6152 14.4507 18.6272 14.4478C18.63 14.4471 18.6328 14.4464 18.6356 14.4457C18.6498 14.4456 18.664 14.4454 18.6782 14.4452C18.7208 14.4446 18.7633 14.4441 18.8059 14.4445C18.8129 14.4445 18.8197 14.4476 18.8265 14.4507C18.8301 14.4523 18.8336 14.454 18.8372 14.4552C19.0341 14.4605 19.2144 14.5232 19.3829 14.6213C19.6324 14.7662 19.8187 14.9719 19.9541 15.2261C20.1214 15.5395 20.1752 15.8753 20.145 16.2247C20.1137 16.5842 19.9895 16.9093 19.7554 17.1872C19.5585 17.4207 19.3138 17.5804 19.0134 17.6495C18.9808 17.657 18.9474 17.6613 18.9141 17.6657C18.8973 17.6678 18.8805 17.67 18.8639 17.6726C18.8491 17.6741 18.8344 17.6754 18.8198 17.6767ZM13.3316 14.4552C13.3502 14.4525 13.3689 14.4499 13.3874 14.4469C13.4019 14.4467 13.4164 14.4466 13.4309 14.4464C13.4752 14.4458 13.5197 14.4453 13.5641 14.4457C13.5699 14.4457 13.576 14.4489 13.582 14.452C13.5846 14.4534 13.5871 14.4547 13.5896 14.4558C13.8107 14.4599 14.0093 14.5362 14.1914 14.655C14.5692 14.9015 14.785 15.2575 14.8749 15.6944C14.8859 15.7486 14.8913 15.8039 14.8966 15.8592C14.8991 15.8841 14.9015 15.909 14.9044 15.9338C14.9062 15.9385 14.9086 15.9439 14.9104 15.9486C14.9139 16.1514 14.8985 16.3524 14.8441 16.5493C14.7732 16.8053 14.6532 17.0341 14.4734 17.2315C14.2813 17.442 14.0495 17.5863 13.7705 17.6501C13.7381 17.6574 13.7049 17.6617 13.6719 17.6659C13.6566 17.6678 13.6413 17.6698 13.6262 17.672C13.61 17.6738 13.5936 17.6754 13.5771 17.677C13.5607 17.6787 13.5443 17.6803 13.5281 17.6821C13.5148 17.6818 13.5013 17.6816 13.4879 17.6815C13.4744 17.6813 13.461 17.6812 13.4477 17.6809C13.4329 17.6794 13.4183 17.6781 13.4037 17.6767C13.389 17.6754 13.3744 17.6741 13.3596 17.6726C13.1491 17.6549 12.9587 17.5804 12.7837 17.4645C12.497 17.2741 12.3042 17.0092 12.183 16.69C12.0867 16.4358 12.0548 16.1715 12.0784 15.9019C12.1109 15.5336 12.2398 15.2019 12.4834 14.9211C12.6803 14.6934 12.925 14.5385 13.2218 14.4735C13.2579 14.4657 13.2948 14.4604 13.3316 14.4552Z" fill="white" fill-opacity="0.6"/>
</svg>
