<svg fill="none" xmlns="http://www.w3.org/2000/svg" viewBox="0 0 60 76"><g><path d="M44.422 21.862s-7.726-3.435-8.215-3.956c-.49-.521-2.949-4.807-3.55-6.377-.277-.725-3.072-.527-2.82.492.266 1.084 2.136 6.207 2.653 7.548.517 1.34 5.625 5.547 6.96 6.644 2.341 1.924 6.705-3.25 4.973-4.35" fill="#FAFAFA"/><path opacity=".1" d="M43.92 24.651s-.002.002-.002.005c-1.144 1.446-3.135 2.65-4.467 1.556-1.334-1.096-6.444-5.302-6.96-6.643-.518-1.34-2.385-6.465-2.653-7.547-.138-.556.632-.868 1.406-.918.178.356.497 1.098.36 1.623-.184.715-.254 2.314-.254 2.314l1.601 4.392 6.165 5.713s.702-1.36 1.23-1.722c.526-.358 3.604 1.19 3.574 1.227Z" fill="#000"/><path d="M29.624 7.462s-.219 2.08-.122 2.722c.094.644.069.923.524 1.447 0 0 .03.14.05.222.039.156.383.453 1.215.416.807-.037 1.048-.462 1.048-.718 0-.121.036-.348.036-.348s.036-2.511.003-2.757c-.033-.246-1.802-.97-2.102-1.108-.3-.137-.632-.1-.654.123l.002.001Z" fill="#FAC7AA"/><path d="m30.372 4.748-.025.913.02.839.075 1.04c.022.268-.803.413-.831.057-.029-.357-.012-.918.049-1.083 0 0-.035-.394.023-.945 0 0-.05-.91.45-.95.256-.02.237.13.237.13l.002-.001Z" fill="#FAC7AA"/><path d="m31.285 4.28-.07 1.099-.013 1.009s.03.934.045 1.256c.014.321-.985.46-1.003.03-.018-.43.028-1.104.108-1.3 0 0-.024-.475.07-1.137 0 0-.02-1.097.585-1.121.309-.013.28.166.28.166l-.002-.002Z" fill="#FAC7AA"/><path d="M32.118 4.51 32 5.604l-.054 1.007s-.009.934-.009 1.256c0 .322-1.003.418-1.003-.012s.073-1.102.162-1.293c0 0-.005-.476.118-1.133 0 0 .025-1.097.631-1.097.31 0 .273.178.273.178h-.001Z" fill="#FAC7AA"/><path d="m32.489 5.282-.04.972-.055 1.007s-.008.934-.008 1.256c0 .322-.978.43-.978 0s.047-1.114.136-1.306c0 0-.013-.37.075-1.006 0 0-.007-1.101.599-1.101.308 0 .272.177.272.177l-.001.002Z" fill="#FAC7AA"/><path d="M31.216 10.156a.663.663 0 0 1 .224.031s.231-.52.36-.691c0 0 .091-.883.85-.801.223.024.17.212.13.329-.04.117-.204.507-.157 1.04.048.533-.195 1.323-.304 1.622-.11.3-.859.8-1.45.422-.372-.236-.598-.48-.415-1.291.081-.366.39-.653.764-.663l-.002.002Z" fill="#FAC7AA"/><path d="M49.227 57.477s.042-.009-.15.937c-.193.945-.273.831-.928 2.45-.384.946-.252 2.277.613 2.784 1.147.67 2.885-.063 3.28-1.978.389-1.888.073-1.684.446-2.214.374-.53 1.535-1.501 1.362-2.483-.283-1.606-1.214-1.53-2.26-2.228 0 0-1.37-.555-2.155.36-.863 1.002-.21 2.375-.21 2.375l.002-.003ZM40.77 66.694c.245 1.194-.122 2.102-.883 3.218-.761 1.114-2.466 3.555-1.343 4.428 1.514 1.176 3.672-.146 4.628-1.15.92-.963.391-1.246 1.287-2.887.895-1.643 1.48-2.087 1.285-2.943-.195-.856-.482-.53-.9-1.896-.37-1.21-4.361-.17-4.074 1.232v-.002Z" fill="#21222D"/><path d="M37.452 40.922c.036 2.585.194 4.711 1.584 11.87a3.167 3.167 0 0 0 1.91 2.332c2.498 1.02 7.815 2.987 8.665 3.29 1.644.585 3.49-3.048 1.776-3.88-.955-.465-2.61-1.725-3.798-2.34a14.963 14.963 0 0 0-2.723-1.082s.148-6.402-.125-9.112c-.273-2.709-7.328-3.758-7.29-1.078Z" fill="#3B3C49"/><path d="M49.054 42.516c-.693 4.997-5.385 13.194-5.385 13.194s.227 1.274.614 3.503c.439 2.545.206 3.928.762 6.554.431 2.038-4.195 2.734-4.387 1.769-.4-2.01-2.623-9.966-2.91-12.223-.285-2.258 1.362-8.497 3.282-14.079 1.92-5.583 8.404-1.436 8.026 1.283l-.002-.001Z" fill="#4D4E5A"/><path opacity=".25" d="M49.056 42.517c-.695 4.999-5.387 13.194-5.387 13.194s.229 1.275.613 3.502c.44 2.544.206 3.927.761 6.553.433 2.038-4.193 2.735-4.387 1.77-.313-1.565-1.727-6.736-2.475-10.012.855.857 1.908 1.042 3.116.817 1.47-.276 1.776-1.263 1.8-1.59.025-.328-.203-1.786-.203-1.786.762-1.425 4.723-10.393 4.723-10.393s-.735.494-3.168.63c-1.926.11-3.646-.93-4.278-1.366.276-.871.564-1.745.859-2.602 1.92-5.582 8.403-1.438 8.027 1.282l-.001.001Z" fill="#3B3C49"/><path d="M52.069 28.087c-.1.607-.302 1.393-.654 2.424-.51 1.488-3.165 6.45-3.05 8.02l.886 3.775c0 .605-.702 1.958-4.354 2.463-2.575.356-7.555-2.437-7.544-3.831.008-.904.934-2.556.927-4.133-.005-.925-.017-1.85-.016-2.768.003-4.15.261-8.158 2.6-11.383.736-1.017 2.675-1.323 3.752-.682.641.38 1.523.885 2.376 1.38 1.295.752 3.852 2.207 4.438 2.546.414.24.898.582.639 2.19Z" fill="#fff"/><path d="m44.196 24.532-.672-.544-.28 1.168s-2.267 4.215-3.069 14.007l.477 1.42 1.51-.225c-.45-6.465 1.962-14.768 1.962-14.768l1.25-.643c-.296-.078-1.18-.416-1.18-.416l.002.001Z" fill="#44FFD2"/><path d="M48.214 22.014c-.267 1.459.151 2.126.151 2.126s-1.937 1.618-4.163.395c-1.268-.697.142-1.576.55-2.9.44-1.427 1.67-1.199 2.29-1.08.872.165 1.297.77 1.17 1.459h.002Z" fill="#EDB69D"/><path opacity=".15" d="M44.202 24.538s.17 1.424 0 1.908c0 0 3.244-.224 4.526-2.094 0 0-3.58.978-4.526.186Z" fill="#000"/><path d="M44.202 24.536s.355.733.257 1.685c0 0 3.254-.458 4.27-1.87l-.6-1.25s-1.417 1.22-3.925 1.435h-.002Z" fill="#fff"/><path opacity=".15" d="M44.202 24.534s-1.354.409-1.623 1.034c0 0-.034-2.884 1.843-3.205 0 0-.843 1.232-.22 2.171Z" fill="#000"/><path d="M44.202 24.534s-.87-.046-1.531.62c0 0-.046-2.156 1.943-3.185 0 0-.954 1.703-.412 2.565Z" fill="#fff"/><path opacity=".1" d="M51.415 30.511c-.511 1.487-3.166 6.45-3.05 8.018l.886 3.778c0 .603-.702 1.958-4.354 2.462-2.575.357-7.555-2.436-7.544-3.83.008-.904.934-2.557.927-4.133 0-.053 0-.11-.002-.163 1.887 2.456 6.302 3.286 7.748 3.09 1.618-.218 1.865-1.943 1.838-2.57-.027-.63 1.635-5.156 1.635-5.156l2.048-1.89c-.04.127-.084.259-.13.394h-.002Z" fill="#000"/><path d="M50.08 19.44c-1.175 2.246-2.362 2.892-3.294 3.184-.805.253-2.821.767-3.727.387-.45-.188-.677-2.04-.744-2.686-.032-.299.093-1.206.114-1.285.25-.856.09-2.067.365-3.331.266-1.216.8-1.934 1.62-2.297.98-.431 1.906-.625 3.59-.2 2.123.534 3.35 3.786 2.074 6.228h.001Z" fill="#FAC7AA"/><path d="M42.486 16.069c.218.965 3.28 1.67 4.783 1.96.441.085.717.53.596.964l-.47 1.709a.07.07 0 0 0 .072.086.58.58 0 0 0 .471-.337c.266-.58.888-1.74 1.39-1.116.749.927-1.107 2.529-1.107 2.529s1.442-.511 2.502-2.824c1.032-2.25-.023-3.198-.023-3.198s-.095-2.154-2.612-2.877c-3.753-1.08-5.72 1.233-5.604 3.102l.002.002Z" fill="#BA6727"/><path d="M50.852 18.744c-.037.097-.08.197-.127.299-1.062 2.31-2.502 2.822-2.502 2.822s1.855-1.6 1.107-2.529c-.502-.623-1.126.534-1.39 1.116a.584.584 0 0 1-.452.335l-.019.003a.07.07 0 0 1-.073-.087l.47-1.709a.774.774 0 0 0-.596-.966c-1.504-.29-4.566-.993-4.784-1.96a2.725 2.725 0 0 1 .138-1.029c.645.515 2.565 1.674 5.511 2.03.487.06.935.297 1.25.675.333.4.844.876 1.466.999l.001.001Z" fill="#94451B"/><path d="M51.765 26.128c.614.393 4.793 7.263 6.429 9.978a2.097 2.097 0 0 1-.008 2.18c-.94 1.537-2.592 4.198-2.98 4.575-.548.534-2.97-1.1-2.389-2.005.484-.75 1.886-3.503 1.886-3.503s-2.564-2.18-5.12-5.238c-1.32-1.579 1.406-6.482 2.18-5.989l.002.002Z" fill="#fff"/><path opacity=".1" d="M56.617 36.426s-1.375.648-1.662 1.022l-2.111 4.127c-.132-.253-.16-.507-.024-.717.483-.751 1.885-3.505 1.885-3.505s-2.563-2.18-5.12-5.237a1.123 1.123 0 0 1-.086-.118l5.416 4.906s1.28-.465 1.702-.478Z" fill="#000"/><path d="m50.75 42.955-.946.978-.601.557s-.477.413-.547.501c-.144.178.173.664.507.417.307-.228.482-.35.482-.35l.745-.557s.86-.648 1.066-.819c.267-.222-.342-1.065-.704-.729l-.001.002Z" fill="#FAC7AA"/><path d="m51.279 43.732-.9 1.02-.576.583s-.39.393-.457.484c-.135.184.135.698.457.436.297-.241.465-.373.465-.373l.72-.59s.83-.686 1.026-.866c.257-.234-.389-1.05-.735-.696v.002Z" fill="#FAC7AA"/><path d="m51.938 44.276-.838 1.072-.54.618s-.388.423-.45.518c-.124.192.193.703.497.422.282-.258.451-.422.451-.422l.682-.632s.787-.734.974-.926c.243-.25-.451-1.024-.776-.65Z" fill="#FAC7AA"/><path d="m52.48 44.887-.813 1.17-.445.617s-.242.433-.283.524c-.104.224.21.606.436.316.21-.267.356-.459.356-.459l.568-.65s.827-1.055.962-1.25c.175-.252-.55-.642-.781-.268Z" fill="#FAC7AA"/><path d="M52.857 41.333c-.16.152-.373.173-.373.173s-1.422 1.057-1.75 1.467c-.328.41-.212.569.129.948.34.38 1.387 1.143 1.678 1.34.292.196.444.232.718-.104.275-.336 1.096-1.563 1.254-1.888.158-.325.166-.29.25-.393.135-.166.079-.615-.585-1.2-.462-.406-1.16-.494-1.32-.343Z" fill="#FAC7AA"/><path d="M52.583 41.488s-.718.145-.965.198a3.749 3.749 0 0 0-.741.274c-.104.06-.847.524-.96.563-.113.04-.67.243-.753.26-.084.019.03.559.448.506.418-.051.636-.215.636-.215s.515-.067.728-.132c0 0 1.055.176 1.545.1.49-.073 1.172-1.584.062-1.555v.001Z" fill="#FAC7AA"/><path d="m30.953.99-.004 1.52-.338-.197.005-1.52.337.196ZM28.44.032l.5 1.696-.313-.032L28.128 0l.312.032ZM26.281.352l.927 1.615-.239.137-.928-1.615.24-.137ZM24.804 1.902l1.215 1.286-.13.288-1.214-1.288.129-.286ZM25.55 5.21v.39l-1.316-.763.001-.39 1.316.764ZM25.877 7.722l.128.436-1.218-.124-.128-.436 1.218.124ZM26.947 10.344l.236.414-.933.536-.237-.416.934-.534ZM28.596 12.67l.312.33-.509 1.112-.31-.33.507-1.112ZM30.915 14.548l-.005 1.522-.337-.197.004-1.52.337.195ZM32.898 15.168l.499 1.697-.312-.03-.5-1.698.313.031ZM34.558 14.76l.927 1.615-.24.137-.929-1.615.242-.137ZM35.637 13.387l1.213 1.286-.129.286-1.215-1.288.131-.284ZM37.291 12.027v.39l-1.316-.766.001-.39 1.315.766ZM36.739 8.831l.128.436-1.218-.124-.128-.436 1.218.124ZM35.275 5.574l.238.413-.933.536-.239-.415.934-.534ZM33.125 2.752l.31.33-.507 1.112-.311-.33.508-1.112Z" fill="#fff"/><path d="m2.293 23.785-.239-.671.07-.375s.06-.117.077-.14c.034-.052.075-.389-.266-.529-.168.153-.337.252-.386.308-.049.056-.33.505-.37.607-.04.103.116.726.147.892.056.293 1.099.41.968-.092h-.001Z" fill="#FFD2B3"/><path d="m2.748 22.953-.239-.671.07-.375s.06-.117.077-.14c.034-.052.075-.389-.266-.529-.168.153-.337.251-.386.308-.049.056-.33.505-.37.607-.04.103.196 1.018.228 1.184.056.293 1.018.118.887-.384h-.001Z" fill="#FFD2B3"/><path d="m3.355 22.163-.178-.691.104-.367s.069-.111.087-.133c.035-.042.092-.306-.119-.485a.15.15 0 0 0-.18-.008c-.15.102-.285.167-.331.21a5.424 5.424 0 0 0-.424.57c-.05.099.105 1.033.122 1.201.03.298 1.004.215.918-.297h.001Z" fill="#FFD2B3"/><path d="M4.065 21.686v-.68l.123-.252s.13-.143.148-.165a.427.427 0 0 0-.201-.564c-.056-.029-.39.121-.444.173-.054.052-.389.498-.44.595-.05.097-.123.964-.137 1.134-.014.17.95.29.95-.24Z" fill="#FFD2B3"/><path d="M1.339 23.53a.705.705 0 0 0 .076.574c.257.421.802 1.328.893 1.547.118.287.105.35.105.35s.053.334 1.172.178c.848-.118 1.08-.386 1.124-.658.019-.11.055-.199.092-.267a.752.752 0 0 0 .076-.454c-.08-.631-.28-2.073-.484-2.487-.263-.534-.42-.78-.42-.78s-.816.068-1.566.602c-.57.406-.935.969-1.068 1.396Z" fill="#FFD2B3"/><path d="M4.859 25.108s.21-.668.276-1.071c.066-.404.127-1.31.127-1.31l.153-1.14s.083-.635-.044-.83c-.126-.196-.495-.14-.633.237s-.152.533-.152.533-.06.423-.343.707c-.075.075-.1.131-.24.253-.14.12-.583.694-.147 1.74.437 1.047.915 1.008 1.003.882v-.001Z" fill="#FFD2B3"/><path d="M2.195 25.857c.092.603.356 3.27.417 3.715.158 1.147 3.96.378 3.24-1.49-.721-1.868-.688-2.387-.87-3.032-.285-1.02-2.92-.063-2.787.805v.002Z" fill="#FAFAFA"/><path opacity=".1" d="M5.52 29.426a6.33 6.33 0 0 1-.634.13c-.166 0-1.216-1.864-1.216-1.864l.96-1.309-.32-1.768c.334.022.593.153.672.438.183.645.15 1.163.87 3.03.21.55.03 1.005-.334 1.343h.002Z" fill="#000"/><path d="M13.772 21.383s-.48-.313-1.506-.315c-1.382 0-2.709 1.558-3.93 2.759-1.201 1.179-4.867 4.084-5.538 4.617-.67.534.103 4.174 3.123 2.451 3.02-1.723 4.955-3.458 6.474-4.28 1.52-.821 3.011-4.493 1.377-5.232Z" fill="#FAFAFA"/><path opacity=".1" d="M14.31 23.828c-.337 1.157-1.122 2.36-1.913 2.788-1.52.82-3.455 2.555-6.474 4.28-2.088 1.19-3.102-.18-3.307-1.32l-.002-.005-.001-.018a2.327 2.327 0 0 1-.033-.27c-.093-.835-.302-2.906-.382-3.427a.506.506 0 0 1 .052-.293c.149 1.075.567 4.014.79 4.416.27.494 1.122 1.094 2.633.198 1.512-.896 4.393-2.817 4.393-2.817l.073-1.77 4.176-1.764-.004.002Z" fill="#000"/><path d="M15.808 65.319c.809.306 1.24.635 1.19.841a1.025 1.025 0 0 1-.058.152s.475 1.003.882 2.06c.517 1.343 1.48 2.77 2.474 3.48 1.004.715.454 1.566-.622 1.428-1.082-.137-4.282-1.794-4.641-2.565-.655-1.405-1.57-1.19-2.111-1.557-1.139-.772-1.104-1.042-.412-2.152.635-1.016 1.162-.817 1.43-1.597.185-.536 1.001-.42 1.868-.092v.002Z" fill="#21222D"/><path d="M20.494 73.157c-.2.115-.485.166-.82.125-1.082-.138-4.283-1.793-4.64-2.564-.654-1.407-1.57-1.19-2.11-1.559-.832-.561-1.036-.859-.82-1.407 0 0 .19.397 1.012.91.817.509 1.01.318 1.377.673.366.354.758 1.637 2.835 2.652.4.196 2.295 1.192 3.166 1.17Z" fill="#4D4D4D"/><path d="M12.296 37.76s-1.098 1.026.06 5.103c.34 1.198 4.805 9.915 4.805 9.915s-1.961 4.292-2.296 6.115c-.335 1.823-.587 3.69-1.463 6.82-.221.794 3.854 2.008 4.014 1.187.21-1.083 4.813-13.715 4.813-13.715s-2.048-12.741-2.54-14.358c-.493-1.616-5.774-3.71-7.392-1.068Z" fill="#3B3C49"/><path opacity=".25" d="M22.229 53.182S17.625 65.815 17.414 66.9c-.068.352-.856.33-1.716.127l3.797-14.255-4.112-8.564s-1.734-.685-3.223-2.094c-.828-3.458.136-4.358.136-4.358 1.617-2.641 6.899-.548 7.391 1.069.493 1.617 2.542 14.357 2.542 14.357v.001Z" fill="#000"/><path d="m14.41 40.656 5.904 12.605s-1.828.48-3.608 1.302c-1.933.89-2.56 1.676-4.912 2.708-.646.284-.056 4.058 1.408 3.774 1.463-.284 11.659-3.75 12.484-4.09 1.821-.75-.982-14.724-1.757-16.509-2.538-5.835-11.263-3.68-9.518.211v-.001Z" fill="#4D4E5A"/><path opacity=".25" d="M19.82 44.786s3.023 8.015 3.043 9c-.775-.185-2.328-.04-6.157.773 1.78-.82 3.608-1.3 3.608-1.3l-5.902-12.605c-1.746-3.892 6.98-6.048 9.518-.21.118.268.28.812.465 1.546-.631.64-2.172 1.994-4.573 2.795l-.002.001Z" fill="#3B3C49"/><path opacity=".25" d="M26.29 54.629c-.008 1.27-.183 2.152-.604 2.324-.826.339-11.02 3.807-12.485 4.092a.79.79 0 0 1-.5-.067c3.1-1.074 11.38-3.969 12.349-4.604.596-.39.992-1.114 1.242-1.744l-.001-.001Z" fill="#000"/><path d="M12.93 58.947c.344 1.296.058 1.577-.117 1.668l-.036.012s-.066.656-.91 1.732c-.845 1.075-1.447 2.774-1 3.883.446 1.108-.395 1.645-1.119.858-.722-.786-1.806-1.752-1.892-2.575-.087-.822.034-1.162.412-2.182.377-1.02.3-2.42.275-3.064-.034-.942.067-1.487 1.279-1.633 1.11-.134 1.43.163 1.958-.07.246-.106.85.243 1.148 1.37h.002Z" fill="#21222D"/><path d="M10.314 66.393c.168.381.326.745.21 1.078-.228.03-.51-.08-.775-.368-.72-.786-1.805-1.752-1.891-2.575-.086-.822.034-1.162.414-2.18.377-1.021.298-2.421.275-3.065-.033-.859.048-1.389.987-1.588.69.083 1.25.42 1.436 1.308.218 1.04-.254 1.807-.451 2.46-.039.13-.079.26-.114.39-.213.792-.537 2.727-.427 3.521.054.381.204.722.336 1.02Z" fill="#4D4D4D"/><path d="M9.76 65.403c.134.94.775 1.59.53 2.051-.174-.043-.361-.157-.54-.352-.722-.786-1.806-1.752-1.892-2.575-.086-.822.034-1.162.414-2.18.377-1.021.298-2.421.275-3.065-.021-.56.006-.98.286-1.259a.963.963 0 0 1 .3-.044c.441.005 1.172.17 1.367 1.16.234 1.192-.1 1.884-.306 2.653-.206.77-.551 2.757-.432 3.614l-.001-.003Z" fill="#4D4E5A"/><path d="M10.07 23.955c.056-1.48 2.267-3.313 3.702-2.57.938.487 2.612 1.298 3.653 1.923.71.426 2.984 1.728 4.008 2.337 1.463.87 1.86 3.32 1.676 4.77-.77 6.063-.313 5.665.062 7.184.354 1.44 1.384 3.28.986 3.736-.63.725-3.086 2.673-4.395 2.825-4.112.479-8.04-2.292-8.06-4.2-.01-.906-.179-2.717-.17-4.455.034-6.345-1.623-7.314-1.464-11.55h.002Z" fill="#FAFAFA"/><path d="M18.829 20.64s-.293 2.106.79 3.892c0 0-2.607.392-4.089-.552-1.483-.945-.93-1.173-.685-2.055.255-.914.603-1.656.487-2.42-.116-.761 3.122-.42 3.498 1.137l-.001-.002Z" fill="#FFD2B3"/><path d="M19.618 24.531c-.627-.542-.841-2.064-.982-2.245-.142-.182-1.946-.445-1.946-.445l2.1-.484c.007.77.139 2.037.828 3.173v.001Z" fill="#F2C1A5"/><path d="M19.701 24.58s-2.207.769-4.456-.422c-2.309-1.221-.301-2.572-.301-2.572h.003c-.019.426.244.854.785 1.18.885.533 2.235.613 3.257.242h.007c.148-.03.246.078.316.215.173.34.25.684.39 1.355v.002Z" fill="#E6E6E6"/><path opacity=".1" d="M24.159 41.332c-.292.335-.977.933-1.76 1.494-.503-2.289-.967-5.645-.918-7.018.054-1.478.28-5.707.28-5.707v-4.226c1.196 1.018 1.518 3.201 1.348 4.537-.77 6.062-.313 5.665.063 7.183.355 1.44 1.385 3.281.987 3.737Z" fill="#000"/><path d="M20.096 14.334s.497 1.478.59 2.047c.094.568.042.883.17 1.378.128.495-.082 2.995-.404 3.467-.321.47-4.647 1.387-6.298-.456-1.651-1.842-2.628-4.96-1.015-7.042 1.469-1.898 2.674-2.044 3.949-1.963 1.417.09 2.613 1.316 3.005 2.569h.003Z" fill="#FFD2B3"/><path d="M18.936 18.373s.18.716.27.934c.09.218.463-.165.338-.684a15.022 15.022 0 0 1-.13-.61 1.55 1.55 0 0 1 .275-1.2c.3-.416 1.207-.954.912-3.005-.053-.371-.378-.742-.706-.898a.201.201 0 0 1-.066-.05c-.242-.252-1.644-1.925-4.263-1.126-2.64.803-2.717 2.183-2.717 2.183s-1.321 1.018-.609 3.628c.55 2.015 1.873 3.799 3.368 4.201.904.243 3.256-.653 2.856-1.169-.33-.424-.491-.733-.539-.997-.247-1.384.89-1.838 1.013-1.204l-.002-.003Z" fill="#FFD159"/><path d="M19.689 16.813c-.25.343-.357.775-.276 1.199.042.212.086.432.13.612.126.521-.246.9-.337.683-.09-.217-.27-.933-.27-.933-.12-.633-1.26-.179-1.012 1.204.047.266.208.575.538.998.4.516-1.602 1.587-2.856 1.169-2.213-.74-2.817-2.186-3.366-4.2a5.534 5.534 0 0 1-.086-.357c1.99 2.846 5.65-.118 5.65-.118 3.337-1.676 2.093-4.162 2.093-4.162.327.158.65.529.705.9.296 2.049-.612 2.587-.912 3.005h-.001Z" fill="#DCAF39"/><path d="M27.97 6.085s.33 1.083.37 1.205c.038.123.109 1.478.117 1.621.01.145.352 1.475.433 1.9.08.423 1.788.555 1.699-.549-.09-1.104-.957-1.644-.957-1.644l-.405-1.393s-.378-1.08-.725-1.212c-.243-.093-.41.003-.533.072Z" fill="#F2C1A5"/><path d="M28.894 4.106a.092.092 0 0 0-.085.092c.001.184.006.614.018.804.01.146-.067 1.204-.067 1.204s-.027 1.351-.014 1.56c.013.21.79.384.813-.072.022-.454.01-1.53.01-1.53l.002-1.153s-.01-.596-.22-.78c-.126-.108-.338-.134-.459-.126l.002.001Z" fill="#FFD2B3"/><path d="M29.604 4.182a.092.092 0 0 0-.085.092c.001.183.006.613.019.804.008.146-.068 1.204-.068 1.204s-.027 1.35-.014 1.56c.012.21.79.384.812-.072.023-.455.01-1.53.01-1.53l.003-1.187s.018-.591-.196-.739a.918.918 0 0 0-.483-.134l.002.002Z" fill="#FFD2B3"/><path d="M30.33 4.553a.09.09 0 0 0-.088.092c0 .185.005.612.018.803.009.146-.067 1.204-.067 1.204s-.028 1.35-.015 1.56c.013.21.79.384.813-.072.023-.456.01-1.53.01-1.53l.003-1.211s-.043-.484-.223-.705c-.104-.128-.328-.144-.453-.141h.001Z" fill="#FFD2B3"/><path d="M31.06 5.454a.089.089 0 0 0-.077.087c-.005.164-.02.564-.008.742.008.134-.062 1.102-.062 1.102s-.024 1.237-.013 1.43c.012.191.722.35.744-.066.021-.417.01-1.4.01-1.4l-.043-1.102s.054-.438-.191-.702c-.098-.105-.266-.102-.36-.09Z" fill="#FFD2B3"/><path d="M28.743 7.727s-.135 1.663-.017 2.252c.118.589.316 1.643.316 1.643s.047.349-.013.492c-.355.834 2.013 1.354 2.217.492.125-.525.405-.589.464-1.239.053-.588.014-2.325-.053-2.993-.042-.403-2.118-.894-2.381-.894-.263 0-.518.008-.533.246v.001Z" fill="#FFD2B3"/><path d="M19.871 24.646s3.697-3.155 5.539-4.44c0 0 3.11-7.384 3.333-8.185.224-.801 2.747.039 2.602.764-.145.724-1.89 8.185-2.201 9.116-.313.931-4.8 6.608-5.991 7.881-1.665 1.778-5.713-2.911-3.28-5.137l-.002.001Z" fill="#FAFAFA"/><path opacity=".1" d="M31.345 12.787c-.145.724-1.89 8.184-2.201 9.115-.313.93-4.8 6.607-5.991 7.882-.377.401-.873.473-1.392.318.992-1.171 6.936-8.175 7.087-8.479.138-.283 1.871-7.205 2.37-9.203.103.118.152.244.129.365l-.002.002Z" fill="#000"/></g><defs><clipPath id="a"><path fill="#fff" transform="translate(.429)" d="M0 0h58.809v76H0z"/></clipPath></defs></svg>