<svg width="28" height="28" viewBox="0 0 28 28" fill="none" xmlns="http://www.w3.org/2000/svg">
<path d="M13.9925 0.666748C11.3554 0.666748 8.77757 1.44873 6.58492 2.91382C4.39226 4.37891 2.68329 6.46129 1.67413 8.89764C0.664957 11.334 0.400912 14.0149 0.915382 16.6013C1.42985 19.1877 2.69973 21.5635 4.56443 23.4282C6.42913 25.2929 8.8049 26.5627 11.3913 27.0772C13.9777 27.5917 16.6586 27.3276 19.095 26.3185C21.5313 25.3093 23.6137 23.6003 25.0788 21.4077C26.5439 19.215 27.3259 16.6372 27.3259 14.0001C27.326 12.2491 26.9812 10.5152 26.3112 8.89746C25.6412 7.27972 24.6591 5.80981 23.4209 4.57167C22.1828 3.33352 20.7129 2.3514 19.0951 1.68139C17.4774 1.01138 15.7435 0.666603 13.9925 0.666748ZM18.2319 20.87C18.182 20.9945 18.106 21.1068 18.0092 21.1995C17.9123 21.2922 17.7967 21.3631 17.6702 21.4075C17.5437 21.4519 17.4091 21.4687 17.2756 21.4568C17.142 21.445 17.0126 21.4047 16.8959 21.3387L13.2763 18.5262L10.9532 20.6694C10.8993 20.7092 10.8363 20.7349 10.7698 20.7439C10.7034 20.753 10.6358 20.7452 10.5732 20.7213L11.0185 16.7367L11.0328 16.748L11.0419 16.6694C11.0419 16.6694 17.5552 10.7393 17.8206 10.4867C18.0892 10.2347 18.0006 10.18 18.0006 10.18C18.0159 9.87265 17.5185 10.18 17.5185 10.18L8.88852 15.7321L5.29453 14.5081C5.29453 14.5081 4.74253 14.3101 4.69053 13.8747C4.63587 13.4427 5.31252 13.2081 5.31252 13.2081L19.6019 7.5314C19.6019 7.5314 20.7765 7.00804 20.7765 7.87475L18.2319 20.87Z" fill="#DFE1EE" fill-opacity="0.6"/>
</svg>
