<svg width="28" height="22" viewBox="0 0 28 22" fill="none" xmlns="http://www.w3.org/2000/svg">
<path d="M27.3332 2.73337C26.331 3.16816 25.2711 3.45559 24.1865 3.5867C25.3307 2.90313 26.1882 1.82775 26.5998 0.560035C25.5246 1.20012 24.3475 1.6511 23.1198 1.89337C22.2992 1.00346 21.2065 0.411097 20.0129 0.209171C18.8194 0.00724411 17.5926 0.20718 16.5249 0.777621C15.4572 1.34806 14.6091 2.25674 14.1135 3.36115C13.6179 4.46556 13.5029 5.70322 13.7865 6.88003C11.6124 6.77007 9.48576 6.20397 7.54471 5.21852C5.60366 4.23306 3.89163 2.85029 2.51984 1.16004C2.03869 2.00026 1.78586 2.9518 1.7865 3.92004C1.7848 4.81921 2.00546 5.70486 2.42884 6.49812C2.85223 7.29138 3.46519 7.96765 4.21317 8.4667C3.34381 8.44305 2.49302 8.20977 1.73317 7.7867V7.85337C1.73969 9.11322 2.18116 10.3322 2.98292 11.304C3.78468 12.2758 4.89751 12.9409 6.13317 13.1867C5.65751 13.3315 5.16367 13.4078 4.6665 13.4134C4.32236 13.4093 3.97907 13.3781 3.63984 13.32C3.99172 14.4038 4.67267 15.3509 5.58794 16.0296C6.50321 16.7083 7.60727 17.0848 8.7465 17.1067C6.82277 18.6204 4.44768 19.4465 1.99984 19.4534C1.55415 19.4548 1.10882 19.4281 0.666504 19.3734C3.16574 20.987 6.07825 21.8437 9.05317 21.84C11.1061 21.8614 13.1427 21.4734 15.044 20.6988C16.9453 19.9242 18.6732 18.7785 20.1268 17.3287C21.5803 15.8788 22.7305 14.1539 23.5099 12.2546C24.2894 10.3553 24.6826 8.31967 24.6665 6.2667C24.6665 6.04003 24.6665 5.80003 24.6665 5.56003C25.7128 4.77978 26.6151 3.82327 27.3332 2.73337Z" fill="currentColor"/>
</svg>
